<?xml version="1.0" encoding="UTF-8"?>
<svg xmlns="http://www.w3.org/2000/svg" xmlns:xlink="http://www.w3.org/1999/xlink" width="920" height="760" viewBox="0 0 920 760">
<defs>
<g>
<g id="glyph-0-0-7194f9cd">
<path d="M 5.078125 0 C 4.515625 0.09375 4.125 0.140625 3.71875 0.140625 C 2.421875 0.140625 1.703125 -0.453125 1.703125 -1.515625 C 1.703125 -1.515625 1.703125 -9.125 1.703125 -9.125 C 1.703125 -9.125 0.28125 -9.125 0.28125 -9.125 C 0.28125 -9.125 0.28125 -10.484375 0.28125 -10.484375 C 0.28125 -10.484375 1.703125 -10.484375 1.703125 -10.484375 C 1.703125 -10.484375 1.703125 -13.359375 1.703125 -13.359375 C 1.703125 -13.359375 3.359375 -13.359375 3.359375 -13.359375 C 3.359375 -13.359375 3.359375 -10.484375 3.359375 -10.484375 C 3.359375 -10.484375 5.078125 -10.484375 5.078125 -10.484375 C 5.078125 -10.484375 5.078125 -9.125 5.078125 -9.125 C 5.078125 -9.125 3.359375 -9.125 3.359375 -9.125 C 3.359375 -9.125 3.359375 -2.265625 3.359375 -2.265625 C 3.359375 -1.515625 3.5625 -1.3125 4.28125 -1.3125 C 4.59375 -1.3125 4.859375 -1.34375 5.078125 -1.40625 C 5.078125 -1.40625 5.078125 0 5.078125 0 Z M 5.078125 0 "/>
</g>
<g id="glyph-0-1-7194f9cd">
<path d="M 3.0625 0 C 3.0625 0 1.40625 0 1.40625 0 C 1.40625 0 1.40625 -10.484375 1.40625 -10.484375 C 1.40625 -10.484375 3.0625 -10.484375 3.0625 -10.484375 C 3.0625 -10.484375 3.0625 0 3.0625 0 Z M 3.28125 -12.0625 C 3.28125 -12.0625 1.203125 -12.0625 1.203125 -12.0625 C 1.203125 -12.0625 1.203125 -14.140625 1.203125 -14.140625 C 1.203125 -14.140625 3.28125 -14.140625 3.28125 -14.140625 C 3.28125 -14.140625 3.28125 -12.0625 3.28125 -12.0625 Z M 3.28125 -12.0625 "/>
</g>
<g id="glyph-0-2-7194f9cd">
<path d="M 15.203125 0 C 15.203125 0 13.546875 0 13.546875 0 C 13.546875 0 13.546875 -7.21875 13.546875 -7.21875 C 13.546875 -8.546875 12.84375 -9.3125 11.625 -9.3125 C 10.265625 -9.3125 9.140625 -8.09375 9.140625 -6.578125 C 9.140625 -6.578125 9.140625 0 9.140625 0 C 9.140625 0 7.484375 0 7.484375 0 C 7.484375 0 7.484375 -7.21875 7.484375 -7.21875 C 7.484375 -8.5625 6.78125 -9.3125 5.546875 -9.3125 C 4.1875 -9.3125 3.078125 -8.09375 3.078125 -6.578125 C 3.078125 -6.578125 3.078125 0 3.078125 0 C 3.078125 0 1.421875 0 1.421875 0 C 1.421875 0 1.421875 -10.484375 1.421875 -10.484375 C 1.421875 -10.484375 2.9375 -10.484375 2.9375 -10.484375 C 2.9375 -10.484375 2.9375 -9 2.9375 -9 C 3.84375 -10.265625 4.765625 -10.78125 6.15625 -10.78125 C 7.515625 -10.78125 8.359375 -10.296875 8.984375 -9.1875 C 9.953125 -10.359375 10.796875 -10.78125 12.203125 -10.78125 C 14.15625 -10.78125 15.203125 -9.734375 15.203125 -7.859375 C 15.203125 -7.859375 15.203125 0 15.203125 0 Z M 15.203125 0 "/>
</g>
<g id="glyph-1-0-7194f9cd">
<path d="M 10.265625 -4.765625 C 10.265625 -4.765625 2.546875 -4.765625 2.546875 -4.765625 C 2.578125 -2.359375 3.875 -1.234375 5.625 -1.234375 C 6.953125 -1.234375 7.90625 -1.796875 8.359375 -3.1875 C 8.359375 -3.1875 10.046875 -3.1875 10.046875 -3.1875 C 9.625 -1.0625 7.953125 0.296875 5.5625 0.296875 C 2.625 0.296875 0.796875 -1.734375 0.796875 -5.1875 C 0.796875 -8.625 2.6875 -10.78125 5.59375 -10.78125 C 7.5625 -10.78125 9.15625 -9.734375 9.84375 -8.015625 C 10.140625 -7.234375 10.265625 -6.28125 10.265625 -4.765625 Z M 8.484375 -6.234375 C 8.484375 -7.875 7.21875 -9.234375 5.578125 -9.234375 C 3.90625 -9.234375 2.71875 -7.984375 2.578125 -6.125 C 2.578125 -6.125 8.453125 -6.125 8.453125 -6.125 C 8.484375 -6.15625 8.484375 -6.234375 8.484375 -6.234375 Z M 8.484375 -6.234375 "/>
</g>
<g id="glyph-2-0-7194f9cd">
<path d="M 8.109375 -5.453125 C 8.109375 -1.734375 6.796875 0.234375 4.40625 0.234375 C 1.96875 0.234375 0.6875 -1.734375 0.6875 -5.546875 C 0.6875 -9.359375 1.953125 -11.34375 4.40625 -11.34375 C 6.859375 -11.34375 8.109375 -9.390625 8.109375 -5.453125 Z M 6.671875 -5.578125 C 6.671875 -8.625 5.921875 -10.09375 4.40625 -10.09375 C 2.875 -10.09375 2.125 -8.640625 2.125 -5.53125 C 2.125 -2.4375 2.875 -0.921875 4.375 -0.921875 C 5.9375 -0.921875 6.671875 -2.375 6.671875 -5.578125 Z M 6.671875 -5.578125 "/>
</g>
<g id="glyph-2-1-7194f9cd">
<path d="M 8.203125 -3.765625 C 8.203125 -1.359375 6.609375 0.234375 4.3125 0.234375 C 2.296875 0.234375 1.03125 -0.65625 0.5625 -2.90625 C 0.5625 -2.90625 1.96875 -2.90625 1.96875 -2.90625 C 2.296875 -1.625 3.0625 -1.015625 4.28125 -1.015625 C 5.828125 -1.015625 6.765625 -1.9375 6.765625 -3.5625 C 6.765625 -5.25 5.8125 -6.21875 4.28125 -6.21875 C 3.40625 -6.21875 2.859375 -5.953125 2.203125 -5.171875 C 2.203125 -5.171875 0.90625 -5.171875 0.90625 -5.171875 C 0.90625 -5.171875 1.765625 -11.109375 1.765625 -11.109375 C 1.765625 -11.109375 7.609375 -11.109375 7.609375 -11.109375 C 7.609375 -11.109375 7.609375 -9.71875 7.609375 -9.71875 C 7.609375 -9.71875 2.890625 -9.71875 2.890625 -9.71875 C 2.890625 -9.71875 2.453125 -6.78125 2.453125 -6.78125 C 3.109375 -7.265625 3.75 -7.46875 4.546875 -7.46875 C 6.71875 -7.46875 8.203125 -6 8.203125 -3.765625 Z M 8.203125 -3.765625 "/>
</g>
<g id="glyph-2-2-7194f9cd">
<path d="M 5.546875 0 C 5.546875 0 4.140625 0 4.140625 0 C 4.140625 0 4.140625 -8.078125 4.140625 -8.078125 C 4.140625 -8.078125 1.625 -8.078125 1.625 -8.078125 C 1.625 -8.078125 1.625 -9.09375 1.625 -9.09375 C 3.8125 -9.359375 4.125 -9.59375 4.625 -11.34375 C 4.625 -11.34375 5.546875 -11.34375 5.546875 -11.34375 C 5.546875 -11.34375 5.546875 0 5.546875 0 Z M 5.546875 0 "/>
</g>
<g id="glyph-2-3-7194f9cd">
<path d="M 8.25 -3.453125 C 8.25 -3.453125 1.09375 -3.453125 1.09375 -3.453125 C 1.09375 -3.453125 1.09375 -4.546875 1.09375 -4.546875 C 1.09375 -4.546875 8.25 -4.546875 8.25 -4.546875 C 8.25 -4.546875 8.25 -3.453125 8.25 -3.453125 Z M 8.25 -3.453125 "/>
</g>
<g id="glyph-2-4-7194f9cd">
<path d="M 3.0625 0 C 3.0625 0 1.390625 0 1.390625 0 C 1.390625 0 1.390625 -1.65625 1.390625 -1.65625 C 1.390625 -1.65625 3.0625 -1.65625 3.0625 -1.65625 C 3.0625 -1.65625 3.0625 0 3.0625 0 Z M 3.0625 0 "/>
</g>
<g id="glyph-2-5-7194f9cd">
<path d="M 8.171875 -8.015625 C 8.171875 -6.625 7.359375 -5.4375 5.78125 -4.59375 C 5.78125 -4.59375 4.171875 -3.734375 4.171875 -3.734375 C 2.78125 -2.90625 2.265625 -2.3125 2.125 -1.390625 C 2.125 -1.390625 8.09375 -1.390625 8.09375 -1.390625 C 8.09375 -1.390625 8.09375 0 8.09375 0 C 8.09375 0 0.546875 0 0.546875 0 C 0.671875 -2.5 1.359375 -3.5625 3.734375 -4.90625 C 3.734375 -4.90625 5.203125 -5.75 5.203125 -5.75 C 6.203125 -6.3125 6.734375 -7.09375 6.734375 -7.984375 C 6.734375 -9.203125 5.78125 -10.109375 4.5 -10.109375 C 3.109375 -10.109375 2.3125 -9.3125 2.203125 -7.40625 C 2.203125 -7.40625 0.796875 -7.40625 0.796875 -7.40625 C 0.875 -10.15625 2.21875 -11.34375 4.546875 -11.34375 C 6.6875 -11.34375 8.171875 -9.9375 8.171875 -8.015625 Z M 8.171875 -8.015625 "/>
</g>
<g id="glyph-2-6-7194f9cd">
<path d="M 8.09375 -3.296875 C 8.09375 -1.15625 6.59375 0.234375 4.25 0.234375 C 1.9375 0.234375 0.6875 -0.890625 0.515625 -3.421875 C 0.515625 -3.421875 1.921875 -3.421875 1.921875 -3.421875 C 2.015625 -1.78125 2.765625 -1.015625 4.296875 -1.015625 C 5.78125 -1.015625 6.65625 -1.859375 6.65625 -3.28125 C 6.65625 -4.546875 5.859375 -5.28125 4.296875 -5.28125 C 4.296875 -5.28125 3.53125 -5.28125 3.53125 -5.28125 C 3.53125 -5.28125 3.53125 -6.46875 3.53125 -6.46875 C 5.796875 -6.46875 6.3125 -6.953125 6.3125 -8.171875 C 6.3125 -9.375 5.5625 -10.109375 4.3125 -10.109375 C 2.875 -10.109375 2.1875 -9.359375 2.15625 -7.6875 C 2.15625 -7.6875 0.75 -7.6875 0.75 -7.6875 C 0.796875 -10.09375 2.015625 -11.34375 4.296875 -11.34375 C 6.46875 -11.34375 7.765625 -10.171875 7.765625 -8.21875 C 7.765625 -7.09375 7.234375 -6.359375 6.171875 -5.9375 C 7.53125 -5.46875 8.09375 -4.671875 8.09375 -3.296875 Z M 8.09375 -3.296875 "/>
</g>
<g id="glyph-2-7-7194f9cd">
<path d="M 8.3125 -2.71875 C 8.3125 -2.71875 6.640625 -2.71875 6.640625 -2.71875 C 6.640625 -2.71875 6.640625 0 6.640625 0 C 6.640625 0 5.234375 0 5.234375 0 C 5.234375 0 5.234375 -2.71875 5.234375 -2.71875 C 5.234375 -2.71875 0.453125 -2.71875 0.453125 -2.71875 C 0.453125 -2.71875 0.453125 -4.203125 0.453125 -4.203125 C 0.453125 -4.203125 5.59375 -11.34375 5.59375 -11.34375 C 5.59375 -11.34375 6.640625 -11.34375 6.640625 -11.34375 C 6.640625 -11.34375 6.640625 -3.984375 6.640625 -3.984375 C 6.640625 -3.984375 8.3125 -3.984375 8.3125 -3.984375 C 8.3125 -3.984375 8.3125 -2.71875 8.3125 -2.71875 Z M 5.234375 -3.984375 C 5.234375 -3.984375 5.234375 -8.9375 5.234375 -8.9375 C 5.234375 -8.9375 1.6875 -3.984375 1.6875 -3.984375 C 1.6875 -3.984375 5.234375 -3.984375 5.234375 -3.984375 Z M 5.234375 -3.984375 "/>
</g>
<g id="glyph-2-8-7194f9cd">
<path d="M 8.203125 -3.515625 C 8.203125 -1.296875 6.65625 0.234375 4.5 0.234375 C 1.90625 0.234375 0.6875 -1.625 0.6875 -5.171875 C 0.6875 -9.125 2.109375 -11.34375 4.75 -11.34375 C 6.484375 -11.34375 7.703125 -10.234375 7.96875 -8.390625 C 7.96875 -8.390625 6.5625 -8.390625 6.5625 -8.390625 C 6.34375 -9.46875 5.640625 -10.09375 4.65625 -10.09375 C 3.046875 -10.09375 2.140625 -8.5625 2.125 -5.796875 C 2.734375 -6.625 3.609375 -7.0625 4.734375 -7.0625 C 6.765625 -7.0625 8.203125 -5.625 8.203125 -3.515625 Z M 6.765625 -3.40625 C 6.765625 -4.921875 5.921875 -5.8125 4.5625 -5.8125 C 3.171875 -5.8125 2.203125 -4.890625 2.203125 -3.484375 C 2.203125 -2.03125 3.203125 -1.015625 4.515625 -1.015625 C 5.8125 -1.015625 6.765625 -1.984375 6.765625 -3.40625 Z M 6.765625 -3.40625 "/>
</g>
<g id="glyph-3-0-7194f9cd">
<path d="M -3.59375 -9.546875 C -1.203125 -9.34375 0.296875 -7.765625 0.296875 -5.265625 C 0.296875 -2.421875 -1.765625 -0.625 -5.140625 -0.625 C -8.625 -0.625 -10.78125 -2.453125 -10.78125 -5.28125 C -10.78125 -7.625 -9.515625 -9.21875 -6.953125 -9.421875 C -6.953125 -9.421875 -6.953125 -7.734375 -6.953125 -7.734375 C -8.421875 -7.546875 -9.234375 -6.65625 -9.234375 -5.265625 C -9.234375 -3.4375 -7.765625 -2.359375 -5.140625 -2.359375 C -2.65625 -2.359375 -1.234375 -3.453125 -1.234375 -5.296875 C -1.234375 -6.71875 -1.921875 -7.578125 -3.59375 -7.859375 C -3.59375 -7.859375 -3.59375 -9.546875 -3.59375 -9.546875 Z M -3.59375 -9.546875 "/>
</g>
<g id="glyph-4-0-7194f9cd">
<path d="M -5.15625 -10.203125 C -1.71875 -10.203125 0.296875 -8.40625 0.296875 -5.453125 C 0.296875 -2.484375 -1.71875 -0.71875 -5.234375 -0.71875 C -8.765625 -0.71875 -10.78125 -2.5 -10.78125 -5.4375 C -10.78125 -8.453125 -8.78125 -10.203125 -5.15625 -10.203125 Z M -5.1875 -8.453125 C -7.78125 -8.453125 -9.234375 -7.34375 -9.234375 -5.453125 C -9.234375 -3.59375 -7.765625 -2.453125 -5.234375 -2.453125 C -2.703125 -2.453125 -1.234375 -3.59375 -1.234375 -5.453125 C -1.234375 -7.296875 -2.71875 -8.453125 -5.1875 -8.453125 Z M -5.1875 -8.453125 "/>
</g>
<g id="glyph-5-0-7194f9cd">
<path d="M 0 -9.734375 C 0 -9.734375 0 -8.078125 0 -8.078125 C 0 -8.078125 -7.265625 -8.078125 -7.265625 -8.078125 C -8.515625 -8.078125 -9.3125 -7.234375 -9.3125 -5.921875 C -9.3125 -4.21875 -7.921875 -3.0625 -5.78125 -3.0625 C -5.78125 -3.0625 0 -3.0625 0 -3.0625 C 0 -3.0625 0 -1.40625 0 -1.40625 C 0 -1.40625 -10.484375 -1.40625 -10.484375 -1.40625 C -10.484375 -1.40625 -10.484375 -2.9375 -10.484375 -2.9375 C -10.484375 -2.9375 -8.71875 -2.9375 -8.71875 -2.9375 C -10.1875 -3.859375 -10.78125 -4.859375 -10.78125 -6.421875 C -10.78125 -8.4375 -9.65625 -9.734375 -7.921875 -9.734375 C -7.921875 -9.734375 0 -9.734375 0 -9.734375 Z M 0 -9.734375 "/>
</g>
<g id="glyph-5-1-7194f9cd">
<path d="M 0 -15.203125 C 0 -15.203125 0 -13.546875 0 -13.546875 C 0 -13.546875 -7.21875 -13.546875 -7.21875 -13.546875 C -8.546875 -13.546875 -9.3125 -12.84375 -9.3125 -11.625 C -9.3125 -10.265625 -8.09375 -9.140625 -6.578125 -9.140625 C -6.578125 -9.140625 0 -9.140625 0 -9.140625 C 0 -9.140625 0 -7.484375 0 -7.484375 C 0 -7.484375 -7.21875 -7.484375 -7.21875 -7.484375 C -8.5625 -7.484375 -9.3125 -6.78125 -9.3125 -5.546875 C -9.3125 -4.1875 -8.09375 -3.078125 -6.578125 -3.078125 C -6.578125 -3.078125 0 -3.078125 0 -3.078125 C 0 -3.078125 0 -1.421875 0 -1.421875 C 0 -1.421875 -10.484375 -1.421875 -10.484375 -1.421875 C -10.484375 -1.421875 -10.484375 -2.9375 -10.484375 -2.9375 C -10.484375 -2.9375 -9 -2.9375 -9 -2.9375 C -10.265625 -3.84375 -10.78125 -4.765625 -10.78125 -6.15625 C -10.78125 -7.515625 -10.296875 -8.359375 -9.1875 -8.984375 C -10.359375 -9.953125 -10.78125 -10.796875 -10.78125 -12.203125 C -10.78125 -14.15625 -9.734375 -15.203125 -7.859375 -15.203125 C -7.859375 -15.203125 0 -15.203125 0 -15.203125 Z M 0 -15.203125 "/>
</g>
<g id="glyph-6-0-7194f9cd">
<path d="M 0 -9.90625 C 0 -9.90625 0 -8.421875 0 -8.421875 C 0 -8.421875 -1.546875 -8.421875 -1.546875 -8.421875 C -0.234375 -7.515625 0.296875 -6.515625 0.296875 -5.078125 C 0.296875 -2.265625 -1.796875 -0.515625 -5.34375 -0.515625 C -8.6875 -0.515625 -10.78125 -2.296875 -10.78125 -5.015625 C -10.78125 -6.421875 -10.21875 -7.546875 -9.15625 -8.234375 C -9.15625 -8.234375 -14.578125 -8.234375 -14.578125 -8.234375 C -14.578125 -8.234375 -14.578125 -9.90625 -14.578125 -9.90625 C -14.578125 -9.90625 0 -9.90625 0 -9.90625 Z M -5.203125 -8.234375 C -7.625 -8.234375 -9.21875 -7.09375 -9.21875 -5.296875 C -9.21875 -3.484375 -7.6875 -2.265625 -5.234375 -2.265625 C -2.796875 -2.265625 -1.265625 -3.484375 -1.265625 -5.3125 C -1.265625 -7.078125 -2.78125 -8.234375 -5.203125 -8.234375 Z M -5.203125 -8.234375 "/>
</g>
<g id="glyph-6-1-7194f9cd">
<path d="M 0 -5.078125 C 0.09375 -4.515625 0.140625 -4.125 0.140625 -3.71875 C 0.140625 -2.421875 -0.453125 -1.703125 -1.515625 -1.703125 C -1.515625 -1.703125 -9.125 -1.703125 -9.125 -1.703125 C -9.125 -1.703125 -9.125 -0.28125 -9.125 -0.28125 C -9.125 -0.28125 -10.484375 -0.28125 -10.484375 -0.28125 C -10.484375 -0.28125 -10.484375 -1.703125 -10.484375 -1.703125 C -10.484375 -1.703125 -13.359375 -1.703125 -13.359375 -1.703125 C -13.359375 -1.703125 -13.359375 -3.359375 -13.359375 -3.359375 C -13.359375 -3.359375 -10.484375 -3.359375 -10.484375 -3.359375 C -10.484375 -3.359375 -10.484375 -5.078125 -10.484375 -5.078125 C -10.484375 -5.078125 -9.125 -5.078125 -9.125 -5.078125 C -9.125 -5.078125 -9.125 -3.359375 -9.125 -3.359375 C -9.125 -3.359375 -2.265625 -3.359375 -2.265625 -3.359375 C -1.515625 -3.359375 -1.3125 -3.5625 -1.3125 -4.28125 C -1.3125 -4.59375 -1.34375 -4.859375 -1.40625 -5.078125 C -1.40625 -5.078125 0 -5.078125 0 -5.078125 Z M 0 -5.078125 "/>
</g>
<g id="glyph-7-0-7194f9cd">
<path d="M 0 -3.0625 C 0 -3.0625 0 -1.40625 0 -1.40625 C 0 -1.40625 -10.484375 -1.40625 -10.484375 -1.40625 C -10.484375 -1.40625 -10.484375 -3.0625 -10.484375 -3.0625 C -10.484375 -3.0625 0 -3.0625 0 -3.0625 Z M -12.0625 -3.28125 C -12.0625 -3.28125 -12.0625 -1.203125 -12.0625 -1.203125 C -12.0625 -1.203125 -14.140625 -1.203125 -14.140625 -1.203125 C -14.140625 -1.203125 -14.140625 -3.28125 -14.140625 -3.28125 C -14.140625 -3.28125 -12.0625 -3.28125 -12.0625 -3.28125 Z M -12.0625 -3.28125 "/>
</g>
<g id="glyph-7-1-7194f9cd">
<path d="M -0.046875 -10.703125 C 0.09375 -10.15625 0.140625 -9.90625 0.140625 -9.5625 C 0.140625 -8.734375 -0.4375 -8.015625 -1.234375 -7.84375 C -0.265625 -6.921875 0.296875 -5.625 0.296875 -4.28125 C 0.296875 -2.15625 -0.8125 -0.84375 -2.71875 -0.84375 C -4 -0.84375 -4.9375 -1.453125 -5.4375 -2.6875 C -5.703125 -3.3125 -5.78125 -3.6875 -6.078125 -6.046875 C -6.234375 -7.359375 -6.546875 -7.78125 -7.234375 -7.78125 C -7.234375 -7.78125 -7.6875 -7.78125 -7.6875 -7.78125 C -8.6875 -7.78125 -9.234375 -6.9375 -9.234375 -5.4375 C -9.234375 -3.875 -8.65625 -3.125 -7.375 -2.984375 C -7.375 -2.984375 -7.375 -1.296875 -7.375 -1.296875 C -9.796875 -1.40625 -10.78125 -2.953125 -10.78125 -5.5 C -10.78125 -8.078125 -9.78125 -9.4375 -7.921875 -9.4375 C -7.921875 -9.4375 -2.078125 -9.4375 -2.078125 -9.4375 C -1.5625 -9.4375 -1.265625 -9.765625 -1.265625 -10.34375 C -1.265625 -10.4375 -1.265625 -10.515625 -1.296875 -10.703125 C -1.296875 -10.703125 -0.046875 -10.703125 -0.046875 -10.703125 Z M -3.625 -7.78125 C -3.625 -7.78125 -5.1875 -7.78125 -5.1875 -7.78125 C -4.921875 -7.21875 -4.84375 -6.859375 -4.59375 -5.09375 C -4.34375 -3.3125 -3.859375 -2.578125 -2.765625 -2.578125 C -1.625 -2.578125 -1.15625 -3.34375 -1.15625 -4.640625 C -1.15625 -6.265625 -2.125 -7.78125 -3.625 -7.78125 Z M -3.625 -7.78125 "/>
</g>
<g id="glyph-7-2-7194f9cd">
</g>
<g id="glyph-7-3-7194f9cd">
<path d="M 0 -9.71875 C 0 -9.71875 0 -8.0625 0 -8.0625 C 0 -8.0625 -7.265625 -8.0625 -7.265625 -8.0625 C -8.640625 -8.0625 -9.3125 -7.078125 -9.3125 -5.90625 C -9.3125 -4.1875 -7.921875 -3.0625 -5.78125 -3.0625 C -5.78125 -3.0625 0 -3.0625 0 -3.0625 C 0 -3.0625 0 -1.40625 0 -1.40625 C 0 -1.40625 -14.578125 -1.40625 -14.578125 -1.40625 C -14.578125 -1.40625 -14.578125 -3.0625 -14.578125 -3.0625 C -14.578125 -3.0625 -9.046875 -3.0625 -9.046875 -3.0625 C -10.3125 -4.046875 -10.78125 -4.9375 -10.78125 -6.421875 C -10.78125 -8.453125 -9.6875 -9.71875 -7.921875 -9.71875 C -7.921875 -9.71875 0 -9.71875 0 -9.71875 Z M 0 -9.71875 "/>
</g>
<g id="glyph-7-4-7194f9cd">
<path d="M 0 -9.453125 C 0 -9.453125 0 -7.515625 0 -7.515625 C 0 -7.515625 -4.015625 -4.90625 -4.015625 -4.90625 C -4.015625 -4.90625 0 -2.234375 0 -2.234375 C 0 -2.234375 0 -0.34375 0 -0.34375 C 0 -0.34375 -5.34375 -4.046875 -5.34375 -4.046875 C -5.34375 -4.046875 -10.484375 -0.546875 -10.484375 -0.546875 C -10.484375 -0.546875 -10.484375 -2.4375 -10.484375 -2.4375 C -10.484375 -2.4375 -6.6875 -4.953125 -6.6875 -4.953125 C -6.6875 -4.953125 -10.484375 -7.484375 -10.484375 -7.484375 C -10.484375 -7.484375 -10.484375 -9.359375 -10.484375 -9.359375 C -10.484375 -9.359375 -5.421875 -5.84375 -5.421875 -5.84375 C -5.421875 -5.84375 0 -9.453125 0 -9.453125 Z M 0 -9.453125 "/>
</g>
<g id="glyph-7-5-7194f9cd">
<path d="M 0 -3.015625 C 0 -3.015625 0 -1.359375 0 -1.359375 C 0 -1.359375 -14.578125 -1.359375 -14.578125 -1.359375 C -14.578125 -1.359375 -14.578125 -3.015625 -14.578125 -3.015625 C -14.578125 -3.015625 0 -3.015625 0 -3.015625 Z M 0 -3.015625 "/>
</g>
<g id="glyph-8-0-7194f9cd">
<path d="M 0 -3.0625 C 0 -3.0625 0 -1.40625 0 -1.40625 C 0 -1.40625 -10.484375 -1.40625 -10.484375 -1.40625 C -10.484375 -1.40625 -10.484375 -3.0625 -10.484375 -3.0625 C -10.484375 -3.0625 0 -3.0625 0 -3.0625 Z M -12.0625 -3.28125 C -12.0625 -3.28125 -12.0625 -1.203125 -12.0625 -1.203125 C -12.0625 -1.203125 -14.140625 -1.203125 -14.140625 -1.203125 C -14.140625 -1.203125 -14.140625 -3.28125 -14.140625 -3.28125 C -14.140625 -3.28125 -12.0625 -3.28125 -12.0625 -3.28125 Z M -12.0625 -3.28125 "/>
</g>
<g id="glyph-8-1-7194f9cd">
<path d="M 0 -9.734375 C 0 -9.734375 0 -8.078125 0 -8.078125 C 0 -8.078125 -7.265625 -8.078125 -7.265625 -8.078125 C -8.515625 -8.078125 -9.3125 -7.234375 -9.3125 -5.921875 C -9.3125 -4.21875 -7.921875 -3.0625 -5.78125 -3.0625 C -5.78125 -3.0625 0 -3.0625 0 -3.0625 C 0 -3.0625 0 -1.40625 0 -1.40625 C 0 -1.40625 -10.484375 -1.40625 -10.484375 -1.40625 C -10.484375 -1.40625 -10.484375 -2.9375 -10.484375 -2.9375 C -10.484375 -2.9375 -8.71875 -2.9375 -8.71875 -2.9375 C -10.1875 -3.859375 -10.78125 -4.859375 -10.78125 -6.421875 C -10.78125 -8.4375 -9.65625 -9.734375 -7.921875 -9.734375 C -7.921875 -9.734375 0 -9.734375 0 -9.734375 Z M 0 -9.734375 "/>
</g>
<g id="glyph-9-0-7194f9cd">
<path d="M -5.15625 -10.203125 C -1.71875 -10.203125 0.296875 -8.40625 0.296875 -5.453125 C 0.296875 -2.484375 -1.71875 -0.71875 -5.234375 -0.71875 C -8.765625 -0.71875 -10.78125 -2.5 -10.78125 -5.4375 C -10.78125 -8.453125 -8.78125 -10.203125 -5.15625 -10.203125 Z M -5.1875 -8.453125 C -7.78125 -8.453125 -9.234375 -7.34375 -9.234375 -5.453125 C -9.234375 -3.59375 -7.765625 -2.453125 -5.234375 -2.453125 C -2.703125 -2.453125 -1.234375 -3.59375 -1.234375 -5.453125 C -1.234375 -7.296875 -2.71875 -8.453125 -5.1875 -8.453125 Z M -5.1875 -8.453125 "/>
</g>
<g id="glyph-10-0-7194f9cd">
<path d="M 0 -3.015625 C 0 -3.015625 0 -1.359375 0 -1.359375 C 0 -1.359375 -14.578125 -1.359375 -14.578125 -1.359375 C -14.578125 -1.359375 -14.578125 -3.015625 -14.578125 -3.015625 C -14.578125 -3.015625 0 -3.015625 0 -3.015625 Z M 0 -3.015625 "/>
</g>
<g id="glyph-11-0-7194f9cd">
<path d="M -5.140625 -10.453125 C -1.796875 -10.453125 0.296875 -8.6875 0.296875 -5.984375 C 0.296875 -4.625 -0.1875 -3.640625 -1.265625 -2.765625 C -1.265625 -2.765625 4.359375 -2.765625 4.359375 -2.765625 C 4.359375 -2.765625 4.359375 -1.09375 4.359375 -1.09375 C 4.359375 -1.09375 -10.484375 -1.09375 -10.484375 -1.09375 C -10.484375 -1.09375 -10.484375 -2.625 -10.484375 -2.625 C -10.484375 -2.625 -8.90625 -2.625 -8.90625 -2.625 C -10.140625 -3.40625 -10.78125 -4.546875 -10.78125 -5.953125 C -10.78125 -8.734375 -8.65625 -10.453125 -5.140625 -10.453125 Z M -5.1875 -8.71875 C -7.6875 -8.71875 -9.21875 -7.515625 -9.21875 -5.6875 C -9.21875 -3.921875 -7.625 -2.765625 -5.15625 -2.765625 C -2.703125 -2.765625 -1.265625 -3.921875 -1.265625 -5.6875 C -1.265625 -7.5 -2.796875 -8.71875 -5.1875 -8.71875 Z M -5.1875 -8.71875 "/>
</g>
<g id="glyph-12-0-7194f9cd">
<path d="M -0.046875 -10.703125 C 0.09375 -10.15625 0.140625 -9.90625 0.140625 -9.5625 C 0.140625 -8.734375 -0.4375 -8.015625 -1.234375 -7.84375 C -0.265625 -6.921875 0.296875 -5.625 0.296875 -4.28125 C 0.296875 -2.15625 -0.8125 -0.84375 -2.71875 -0.84375 C -4 -0.84375 -4.9375 -1.453125 -5.4375 -2.6875 C -5.703125 -3.3125 -5.78125 -3.6875 -6.078125 -6.046875 C -6.234375 -7.359375 -6.546875 -7.78125 -7.234375 -7.78125 C -7.234375 -7.78125 -7.6875 -7.78125 -7.6875 -7.78125 C -8.6875 -7.78125 -9.234375 -6.9375 -9.234375 -5.4375 C -9.234375 -3.875 -8.65625 -3.125 -7.375 -2.984375 C -7.375 -2.984375 -7.375 -1.296875 -7.375 -1.296875 C -9.796875 -1.40625 -10.78125 -2.953125 -10.78125 -5.5 C -10.78125 -8.078125 -9.78125 -9.4375 -7.921875 -9.4375 C -7.921875 -9.4375 -2.078125 -9.4375 -2.078125 -9.4375 C -1.5625 -9.4375 -1.265625 -9.765625 -1.265625 -10.34375 C -1.265625 -10.4375 -1.265625 -10.515625 -1.296875 -10.703125 C -1.296875 -10.703125 -0.046875 -10.703125 -0.046875 -10.703125 Z M -3.625 -7.78125 C -3.625 -7.78125 -5.1875 -7.78125 -5.1875 -7.78125 C -4.921875 -7.21875 -4.84375 -6.859375 -4.59375 -5.09375 C -4.34375 -3.3125 -3.859375 -2.578125 -2.765625 -2.578125 C -1.625 -2.578125 -1.15625 -3.34375 -1.15625 -4.640625 C -1.15625 -6.265625 -2.125 -7.78125 -3.625 -7.78125 Z M -3.625 -7.78125 "/>
</g>
<g id="glyph-13-0-7194f9cd">
<path d="M -2.9375 -9.1875 C -0.921875 -9.1875 0.296875 -7.5 0.296875 -4.859375 C 0.296875 -2.125 -0.78125 -0.765625 -3.203125 -0.6875 C -3.203125 -0.6875 -3.203125 -2.4375 -3.203125 -2.4375 C -1.59375 -2.65625 -1.234375 -3.5 -1.234375 -5 C -1.234375 -6.453125 -1.8125 -7.4375 -2.796875 -7.4375 C -3.5625 -7.4375 -3.90625 -6.984375 -4.1875 -5.8125 C -4.1875 -5.8125 -4.5625 -4.265625 -4.5625 -4.265625 C -5.15625 -1.78125 -5.9375 -0.9375 -7.578125 -0.9375 C -9.515625 -0.9375 -10.78125 -2.515625 -10.78125 -4.953125 C -10.78125 -7.375 -9.625 -8.734375 -7.5625 -8.765625 C -7.5625 -8.765625 -7.5625 -7 -7.5625 -7 C -8.65625 -6.953125 -9.234375 -6.234375 -9.234375 -4.90625 C -9.234375 -3.546875 -8.625 -2.6875 -7.65625 -2.6875 C -6.921875 -2.6875 -6.484375 -3.265625 -6.15625 -4.625 C -6.15625 -4.625 -5.78125 -6.21875 -5.78125 -6.21875 C -5.28125 -8.296875 -4.5 -9.1875 -2.9375 -9.1875 Z M -2.9375 -9.1875 "/>
</g>
<g id="glyph-14-0-7194f9cd">
<path d="M -4.765625 -10.265625 C -4.765625 -10.265625 -4.765625 -2.546875 -4.765625 -2.546875 C -2.359375 -2.578125 -1.234375 -3.875 -1.234375 -5.625 C -1.234375 -6.953125 -1.796875 -7.90625 -3.1875 -8.359375 C -3.1875 -8.359375 -3.1875 -10.046875 -3.1875 -10.046875 C -1.0625 -9.625 0.296875 -7.953125 0.296875 -5.5625 C 0.296875 -2.625 -1.734375 -0.796875 -5.1875 -0.796875 C -8.625 -0.796875 -10.78125 -2.6875 -10.78125 -5.59375 C -10.78125 -7.5625 -9.734375 -9.15625 -8.015625 -9.84375 C -7.234375 -10.140625 -6.28125 -10.265625 -4.765625 -10.265625 Z M -6.234375 -8.484375 C -7.875 -8.484375 -9.234375 -7.21875 -9.234375 -5.578125 C -9.234375 -3.90625 -7.984375 -2.71875 -6.125 -2.578125 C -6.125 -2.578125 -6.125 -8.453125 -6.125 -8.453125 C -6.15625 -8.484375 -6.234375 -8.484375 -6.234375 -8.484375 Z M -6.234375 -8.484375 "/>
</g>
<g id="glyph-15-0-7194f9cd">
</g>
<g id="glyph-15-1-7194f9cd">
<path d="M -14.578125 -5.6875 C -14.578125 -5.6875 0.40625 -0.9375 0.40625 -0.9375 C 0.40625 -0.9375 0.40625 0.15625 0.40625 0.15625 C 0.40625 0.15625 -14.578125 -4.578125 -14.578125 -4.578125 C -14.578125 -4.578125 -14.578125 -5.6875 -14.578125 -5.6875 Z M -14.578125 -5.6875 "/>
</g>
<g id="glyph-15-2-7194f9cd">
<path d="M -5.140625 -10.453125 C -1.796875 -10.453125 0.296875 -8.6875 0.296875 -5.984375 C 0.296875 -4.625 -0.1875 -3.640625 -1.265625 -2.765625 C -1.265625 -2.765625 4.359375 -2.765625 4.359375 -2.765625 C 4.359375 -2.765625 4.359375 -1.09375 4.359375 -1.09375 C 4.359375 -1.09375 -10.484375 -1.09375 -10.484375 -1.09375 C -10.484375 -1.09375 -10.484375 -2.625 -10.484375 -2.625 C -10.484375 -2.625 -8.90625 -2.625 -8.90625 -2.625 C -10.140625 -3.40625 -10.78125 -4.546875 -10.78125 -5.953125 C -10.78125 -8.734375 -8.65625 -10.453125 -5.140625 -10.453125 Z M -5.1875 -8.71875 C -7.6875 -8.71875 -9.21875 -7.515625 -9.21875 -5.6875 C -9.21875 -3.921875 -7.625 -2.765625 -5.15625 -2.765625 C -2.703125 -2.765625 -1.265625 -3.921875 -1.265625 -5.6875 C -1.265625 -7.5 -2.796875 -8.71875 -5.1875 -8.71875 Z M -5.1875 -8.71875 "/>
</g>
<g id="glyph-16-0-7194f9cd">
</g>
<g id="glyph-16-1-7194f9cd">
<path d="M 0 -3.0625 C 0 -3.0625 0 -1.40625 0 -1.40625 C 0 -1.40625 -10.484375 -1.40625 -10.484375 -1.40625 C -10.484375 -1.40625 -10.484375 -3.0625 -10.484375 -3.0625 C -10.484375 -3.0625 0 -3.0625 0 -3.0625 Z M -12.0625 -3.28125 C -12.0625 -3.28125 -12.0625 -1.203125 -12.0625 -1.203125 C -12.0625 -1.203125 -14.140625 -1.203125 -14.140625 -1.203125 C -14.140625 -1.203125 -14.140625 -3.28125 -14.140625 -3.28125 C -14.140625 -3.28125 -12.0625 -3.28125 -12.0625 -3.28125 Z M -12.0625 -3.28125 "/>
</g>
<g id="glyph-17-0-7194f9cd">
<path d="M 5.546875 0 C 5.546875 0 4.140625 0 4.140625 0 C 4.140625 0 4.140625 -8.078125 4.140625 -8.078125 C 4.140625 -8.078125 1.625 -8.078125 1.625 -8.078125 C 1.625 -8.078125 1.625 -9.09375 1.625 -9.09375 C 3.8125 -9.359375 4.125 -9.59375 4.625 -11.34375 C 4.625 -11.34375 5.546875 -11.34375 5.546875 -11.34375 C 5.546875 -11.34375 5.546875 0 5.546875 0 Z M 5.546875 0 "/>
</g>
<g id="glyph-17-1-7194f9cd">
<path d="M 8.109375 -5.453125 C 8.109375 -1.734375 6.796875 0.234375 4.40625 0.234375 C 1.96875 0.234375 0.6875 -1.734375 0.6875 -5.546875 C 0.6875 -9.359375 1.953125 -11.34375 4.40625 -11.34375 C 6.859375 -11.34375 8.109375 -9.390625 8.109375 -5.453125 Z M 6.671875 -5.578125 C 6.671875 -8.625 5.921875 -10.09375 4.40625 -10.09375 C 2.875 -10.09375 2.125 -8.640625 2.125 -5.53125 C 2.125 -2.4375 2.875 -0.921875 4.375 -0.921875 C 5.9375 -0.921875 6.671875 -2.375 6.671875 -5.578125 Z M 6.671875 -5.578125 "/>
</g>
<g id="glyph-18-0-7194f9cd">
<path d="M 8.109375 -5.453125 C 8.109375 -1.734375 6.796875 0.234375 4.40625 0.234375 C 1.96875 0.234375 0.6875 -1.734375 0.6875 -5.546875 C 0.6875 -9.359375 1.953125 -11.34375 4.40625 -11.34375 C 6.859375 -11.34375 8.109375 -9.390625 8.109375 -5.453125 Z M 6.671875 -5.578125 C 6.671875 -8.625 5.921875 -10.09375 4.40625 -10.09375 C 2.875 -10.09375 2.125 -8.640625 2.125 -5.53125 C 2.125 -2.4375 2.875 -0.921875 4.375 -0.921875 C 5.9375 -0.921875 6.671875 -2.375 6.671875 -5.578125 Z M 6.671875 -5.578125 "/>
</g>
<g id="glyph-19-0-7194f9cd">
<path d="M 3.0625 0 C 3.0625 0 1.390625 0 1.390625 0 C 1.390625 0 1.390625 -1.65625 1.390625 -1.65625 C 1.390625 -1.65625 3.0625 -1.65625 3.0625 -1.65625 C 3.0625 -1.65625 3.0625 0 3.0625 0 Z M 3.0625 0 "/>
</g>
<g id="glyph-19-1-7194f9cd">
<path d="M 8.203125 -3.765625 C 8.203125 -1.359375 6.609375 0.234375 4.3125 0.234375 C 2.296875 0.234375 1.03125 -0.65625 0.5625 -2.90625 C 0.5625 -2.90625 1.96875 -2.90625 1.96875 -2.90625 C 2.296875 -1.625 3.0625 -1.015625 4.28125 -1.015625 C 5.828125 -1.015625 6.765625 -1.9375 6.765625 -3.5625 C 6.765625 -5.25 5.8125 -6.21875 4.28125 -6.21875 C 3.40625 -6.21875 2.859375 -5.953125 2.203125 -5.171875 C 2.203125 -5.171875 0.90625 -5.171875 0.90625 -5.171875 C 0.90625 -5.171875 1.765625 -11.109375 1.765625 -11.109375 C 1.765625 -11.109375 7.609375 -11.109375 7.609375 -11.109375 C 7.609375 -11.109375 7.609375 -9.71875 7.609375 -9.71875 C 7.609375 -9.71875 2.890625 -9.71875 2.890625 -9.71875 C 2.890625 -9.71875 2.453125 -6.78125 2.453125 -6.78125 C 3.109375 -7.265625 3.75 -7.46875 4.546875 -7.46875 C 6.71875 -7.46875 8.203125 -6 8.203125 -3.765625 Z M 8.203125 -3.765625 "/>
</g>
<g id="glyph-20-0-7194f9cd">
<path d="M 5.546875 0 C 5.546875 0 4.140625 0 4.140625 0 C 4.140625 0 4.140625 -8.078125 4.140625 -8.078125 C 4.140625 -8.078125 1.625 -8.078125 1.625 -8.078125 C 1.625 -8.078125 1.625 -9.09375 1.625 -9.09375 C 3.8125 -9.359375 4.125 -9.59375 4.625 -11.34375 C 4.625 -11.34375 5.546875 -11.34375 5.546875 -11.34375 C 5.546875 -11.34375 5.546875 0 5.546875 0 Z M 5.546875 0 "/>
</g>
<g id="glyph-21-0-7194f9cd">
<path d="M 3.0625 0 C 3.0625 0 1.390625 0 1.390625 0 C 1.390625 0 1.390625 -1.65625 1.390625 -1.65625 C 1.390625 -1.65625 3.0625 -1.65625 3.0625 -1.65625 C 3.0625 -1.65625 3.0625 0 3.0625 0 Z M 3.0625 0 "/>
</g>
<g id="glyph-21-1-7194f9cd">
<path d="M 8.109375 -5.453125 C 8.109375 -1.734375 6.796875 0.234375 4.40625 0.234375 C 1.96875 0.234375 0.6875 -1.734375 0.6875 -5.546875 C 0.6875 -9.359375 1.953125 -11.34375 4.40625 -11.34375 C 6.859375 -11.34375 8.109375 -9.390625 8.109375 -5.453125 Z M 6.671875 -5.578125 C 6.671875 -8.625 5.921875 -10.09375 4.40625 -10.09375 C 2.875 -10.09375 2.125 -8.640625 2.125 -5.53125 C 2.125 -2.4375 2.875 -0.921875 4.375 -0.921875 C 5.9375 -0.921875 6.671875 -2.375 6.671875 -5.578125 Z M 6.671875 -5.578125 "/>
</g>
<g id="glyph-22-0-7194f9cd">
<path d="M 15.0625 -5.484375 C 14.875 -1.796875 12.203125 0.265625 8.234375 0.265625 C 3.765625 0.265625 0.96875 -2.859375 0.96875 -8.015625 C 0.96875 -13.203125 3.78125 -16.296875 8.3125 -16.296875 C 11.921875 -16.296875 14.71875 -14.296875 15 -10.609375 C 15 -10.609375 11.859375 -10.609375 11.859375 -10.609375 C 11.375 -12.671875 10.203125 -13.484375 8.421875 -13.484375 C 5.828125 -13.484375 4.265625 -11.5 4.265625 -7.96875 C 4.265625 -4.46875 5.765625 -2.515625 8.3125 -2.515625 C 10.359375 -2.515625 11.65625 -3.4375 11.859375 -5.484375 C 11.859375 -5.484375 15.0625 -5.484375 15.0625 -5.484375 Z M 15.0625 -5.484375 "/>
</g>
<g id="glyph-22-1-7194f9cd">
<path d="M 12.515625 -5.859375 C 12.515625 -2.046875 10.25 0.203125 6.640625 0.203125 C 2.984375 0.203125 0.765625 -2.03125 0.765625 -5.9375 C 0.765625 -9.828125 2.984375 -12.078125 6.625 -12.078125 C 10.34375 -12.078125 12.515625 -9.875 12.515625 -5.859375 Z M 9.4375 -5.890625 C 9.4375 -8.234375 8.34375 -9.59375 6.640625 -9.59375 C 4.96875 -9.59375 3.84375 -8.203125 3.84375 -5.9375 C 3.84375 -3.671875 4.96875 -2.28125 6.640625 -2.28125 C 8.296875 -2.28125 9.4375 -3.671875 9.4375 -5.890625 Z M 9.4375 -5.890625 "/>
</g>
<g id="glyph-22-2-7194f9cd">
<path d="M 18.125 0 C 18.125 0 15.046875 0 15.046875 0 C 15.046875 0 15.046875 -7.921875 15.046875 -7.921875 C 15.046875 -8.859375 14.40625 -9.453125 13.375 -9.453125 C 12.0625 -9.453125 11.265625 -8.578125 11.265625 -7.125 C 11.265625 -7.125 11.265625 0 11.265625 0 C 11.265625 0 8.1875 0 8.1875 0 C 8.1875 0 8.1875 -7.921875 8.1875 -7.921875 C 8.1875 -8.859375 7.546875 -9.453125 6.515625 -9.453125 C 5.1875 -9.453125 4.40625 -8.578125 4.40625 -7.125 C 4.40625 -7.125 4.40625 0 4.40625 0 C 4.40625 0 1.3125 0 1.3125 0 C 1.3125 0 1.3125 -11.875 1.3125 -11.875 C 1.3125 -11.875 4.375 -11.875 4.375 -11.875 C 4.375 -11.875 4.375 -10.40625 4.375 -10.40625 C 5.390625 -11.609375 6.265625 -12.078125 7.640625 -12.078125 C 9.109375 -12.078125 10.296875 -11.4375 10.875 -10.3125 C 11.796875 -11.546875 12.84375 -12.078125 14.34375 -12.078125 C 16.71875 -12.078125 18.125 -10.71875 18.125 -8.40625 C 18.125 -8.40625 18.125 0 18.125 0 Z M 18.125 0 "/>
</g>
<g id="glyph-22-3-7194f9cd">
<path d="M 12.625 -5.9375 C 12.625 -2.328125 10.515625 0.203125 7.65625 0.203125 C 6.15625 0.203125 5.109375 -0.265625 4.359375 -1.578125 C 4.359375 -1.578125 4.359375 4.796875 4.359375 4.796875 C 4.359375 4.796875 1.28125 4.796875 1.28125 4.796875 C 1.28125 4.796875 1.28125 -11.875 1.28125 -11.875 C 1.28125 -11.875 4.359375 -11.875 4.359375 -11.875 C 4.359375 -11.875 4.359375 -10.125 4.359375 -10.125 C 5.109375 -11.4375 6.15625 -12.078125 7.65625 -12.078125 C 10.765625 -12.078125 12.625 -9.453125 12.625 -5.9375 Z M 9.546875 -5.890625 C 9.546875 -8.15625 8.515625 -9.5 6.953125 -9.5 C 5.40625 -9.5 4.359375 -8.15625 4.359375 -5.9375 C 4.359375 -3.71875 5.40625 -2.375 6.953125 -2.375 C 8.46875 -2.375 9.546875 -3.734375 9.546875 -5.890625 Z M 9.546875 -5.890625 "/>
</g>
<g id="glyph-22-4-7194f9cd">
<path d="M 11.53125 0 C 11.53125 0 8.1875 0 8.1875 0 C 7.890625 -0.359375 7.828125 -0.875 7.828125 -1.5 C 6.75 -0.375 5.546875 0.203125 4.21875 0.203125 C 2.25 0.203125 0.609375 -0.90625 0.609375 -3.21875 C 0.609375 -5.375 1.765625 -6.375 4.109375 -6.796875 C 4.109375 -6.796875 5.34375 -7.015625 5.34375 -7.015625 C 6.890625 -7.28125 7.8125 -7.15625 7.8125 -8.40625 C 7.8125 -9.203125 7.21875 -9.59375 6.03125 -9.59375 C 4.515625 -9.59375 4 -9.203125 3.84375 -7.96875 C 3.84375 -7.96875 0.875 -7.96875 0.875 -7.96875 C 1.078125 -10.71875 2.75 -12.078125 5.96875 -12.078125 C 9.171875 -12.078125 10.828125 -10.84375 10.828125 -8.421875 C 10.828125 -8.421875 10.828125 -1.828125 10.828125 -1.828125 C 10.828125 -1.203125 10.984375 -0.875 11.53125 -0.375 C 11.53125 -0.375 11.53125 0 11.53125 0 Z M 7.8125 -5.078125 C 7.8125 -5.078125 7.8125 -5.609375 7.8125 -5.609375 C 7.453125 -5.4375 7.328125 -5.390625 6.515625 -5.234375 C 6.515625 -5.234375 5.453125 -5.03125 5.453125 -5.03125 C 4.1875 -4.796875 3.703125 -4.46875 3.703125 -3.5625 C 3.703125 -2.6875 4.328125 -2.28125 5.375 -2.28125 C 6.9375 -2.28125 7.8125 -3.296875 7.8125 -5.078125 Z M 7.8125 -5.078125 "/>
</g>
<g id="glyph-22-5-7194f9cd">
<path d="M 11.484375 -4.109375 C 11.203125 -1.578125 9.203125 0.203125 6.3125 0.203125 C 2.796875 0.203125 0.75 -1.9375 0.75 -5.859375 C 0.75 -9.90625 2.8125 -12.078125 6.359375 -12.078125 C 9.328125 -12.078125 11.265625 -10.34375 11.484375 -7.4375 C 11.484375 -7.4375 8.53125 -7.4375 8.53125 -7.4375 C 8.1875 -9 7.59375 -9.59375 6.34375 -9.59375 C 4.40625 -9.59375 3.828125 -8.03125 3.828125 -5.859375 C 3.828125 -3.546875 4.78125 -2.28125 6.34375 -2.28125 C 7.53125 -2.28125 8.140625 -2.875 8.53125 -4.109375 C 8.53125 -4.109375 11.484375 -4.109375 11.484375 -4.109375 Z M 11.484375 -4.109375 "/>
</g>
<g id="glyph-22-6-7194f9cd">
<path d="M 6.625 0 C 6.078125 0.015625 5.515625 0.09375 4.84375 0.09375 C 2.8125 0.09375 1.828125 -0.6875 1.828125 -2.546875 C 1.828125 -2.546875 1.828125 -9.59375 1.828125 -9.59375 C 1.828125 -9.59375 0.3125 -9.59375 0.3125 -9.59375 C 0.3125 -9.59375 0.3125 -11.640625 0.3125 -11.640625 C 0.3125 -11.640625 1.828125 -11.640625 1.828125 -11.640625 C 1.828125 -11.640625 1.828125 -14.828125 1.828125 -14.828125 C 1.828125 -14.828125 4.90625 -14.828125 4.90625 -14.828125 C 4.90625 -14.828125 4.90625 -11.640625 4.90625 -11.640625 C 4.90625 -11.640625 6.625 -11.640625 6.625 -11.640625 C 6.625 -11.640625 6.625 -9.59375 6.625 -9.59375 C 6.625 -9.59375 4.90625 -9.59375 4.90625 -9.59375 C 4.90625 -9.59375 4.90625 -3.390625 4.90625 -3.390625 C 4.90625 -2.328125 5.109375 -2.09375 5.921875 -2.09375 C 6.140625 -2.09375 6.3125 -2.109375 6.625 -2.15625 C 6.625 -2.15625 6.625 0 6.625 0 Z M 6.625 0 "/>
</g>
<g id="glyph-22-7-7194f9cd">
</g>
<g id="glyph-22-8-7194f9cd">
<path d="M 11.546875 -5.5 C 11.546875 -5.5 11.53125 -5.125 11.53125 -5.125 C 11.53125 -5.125 3.5625 -5.125 3.5625 -5.125 C 3.65625 -2.8125 4.578125 -2.15625 6.03125 -2.15625 C 7.15625 -2.15625 8.125 -2.484375 8.375 -3.34375 C 8.375 -3.34375 11.421875 -3.34375 11.421875 -3.34375 C 10.734375 -1.015625 8.578125 0.203125 5.921875 0.203125 C 2.546875 0.203125 0.484375 -1.984375 0.484375 -5.78125 C 0.484375 -9.765625 2.578125 -12.078125 5.984375 -12.078125 C 9.484375 -12.078125 11.546875 -9.59375 11.546875 -5.5 Z M 8.34375 -7.171875 C 8.1875 -8.859375 7.265625 -9.71875 5.9375 -9.71875 C 4.578125 -9.71875 3.8125 -8.828125 3.609375 -7.171875 C 3.609375 -7.171875 8.34375 -7.171875 8.34375 -7.171875 Z M 8.34375 -7.171875 "/>
</g>
<g id="glyph-22-9-7194f9cd">
<path d="M 11.765625 0 C 11.765625 0 8.078125 0 8.078125 0 C 8.078125 0 6.078125 -3.703125 6.078125 -3.703125 C 6.078125 -3.703125 4.046875 0 4.046875 0 C 4.046875 0 0.359375 0 0.359375 0 C 0.359375 0 4.3125 -5.984375 4.3125 -5.984375 C 4.3125 -5.984375 0.4375 -11.875 0.4375 -11.875 C 0.4375 -11.875 4.140625 -11.875 4.140625 -11.875 C 4.140625 -11.875 6.078125 -8.296875 6.078125 -8.296875 C 6.078125 -8.296875 7.984375 -11.875 7.984375 -11.875 C 7.984375 -11.875 11.6875 -11.875 11.6875 -11.875 C 11.6875 -11.875 7.8125 -5.984375 7.8125 -5.984375 C 7.8125 -5.984375 11.765625 0 11.765625 0 Z M 11.765625 0 "/>
</g>
<g id="glyph-22-10-7194f9cd">
<path d="M 4.546875 0 C 4.546875 0 1.46875 0 1.46875 0 C 1.46875 0 1.46875 -11.875 1.46875 -11.875 C 1.46875 -11.875 4.546875 -11.875 4.546875 -11.875 C 4.546875 -11.875 4.546875 0 4.546875 0 Z M 4.59375 -13.3125 C 4.59375 -13.3125 1.515625 -13.3125 1.515625 -13.3125 C 1.515625 -13.3125 1.515625 -16.390625 1.515625 -16.390625 C 1.515625 -16.390625 4.59375 -16.390625 4.59375 -16.390625 C 4.59375 -16.390625 4.59375 -13.3125 4.59375 -13.3125 Z M 4.59375 -13.3125 "/>
</g>
<g id="glyph-22-11-7194f9cd">
<path d="M 8.140625 -8.9375 C 7.71875 -9 7.5 -9.015625 7.171875 -9.015625 C 5.375 -9.015625 4.46875 -8.125 4.46875 -6.3125 C 4.46875 -6.3125 4.46875 0 4.46875 0 C 4.46875 0 1.390625 0 1.390625 0 C 1.390625 0 1.390625 -11.875 1.390625 -11.875 C 1.390625 -11.875 4.46875 -11.875 4.46875 -11.875 C 4.46875 -11.875 4.46875 -9.546875 4.46875 -9.546875 C 5.125 -11.15625 6.359375 -12.078125 7.765625 -12.078125 C 7.859375 -12.078125 7.96875 -12.078125 8.140625 -12.0625 C 8.140625 -12.0625 8.140625 -8.9375 8.140625 -8.9375 Z M 8.140625 -8.9375 "/>
</g>
<g id="glyph-22-12-7194f9cd">
<path d="M 11.90625 0 C 11.90625 0 8.828125 0 8.828125 0 C 8.828125 0 8.828125 -1.5625 8.828125 -1.5625 C 7.9375 -0.390625 6.859375 0.203125 5.265625 0.203125 C 2.734375 0.203125 1.28125 -1.296875 1.28125 -3.921875 C 1.28125 -3.921875 1.28125 -11.875 1.28125 -11.875 C 1.28125 -11.875 4.359375 -11.875 4.359375 -11.875 C 4.359375 -11.875 4.359375 -4.546875 4.359375 -4.546875 C 4.359375 -3.125 5.015625 -2.421875 6.34375 -2.421875 C 7.828125 -2.421875 8.828125 -3.34375 8.828125 -4.75 C 8.828125 -4.75 8.828125 -11.875 8.828125 -11.875 C 8.828125 -11.875 11.90625 -11.875 11.90625 -11.875 C 11.90625 -11.875 11.90625 0 11.90625 0 Z M 11.90625 0 "/>
</g>
<g id="glyph-22-13-7194f9cd">
<path d="M 12.71875 0 C 12.71875 0 0.65625 0 0.65625 0 C 0.65625 0 0.65625 -2.75 0.65625 -2.75 C 0.65625 -2.75 8.859375 -13.28125 8.859375 -13.28125 C 8.859375 -13.28125 0.65625 -13.28125 0.65625 -13.28125 C 0.65625 -13.28125 0.65625 -16.03125 0.65625 -16.03125 C 0.65625 -16.03125 12.71875 -16.03125 12.71875 -16.03125 C 12.71875 -16.03125 12.71875 -13.28125 12.71875 -13.28125 C 12.71875 -13.28125 4.53125 -2.75 4.53125 -2.75 C 4.53125 -2.75 12.71875 -2.75 12.71875 -2.75 C 12.71875 -2.75 12.71875 0 12.71875 0 Z M 12.71875 0 "/>
</g>
<g id="glyph-22-14-7194f9cd">
<path d="M 11.4375 -3.515625 C 11.4375 -1.125 9.59375 0.203125 6.25 0.203125 C 2.640625 0.203125 0.71875 -1.171875 0.640625 -3.765625 C 0.640625 -3.765625 3.65625 -3.765625 3.65625 -3.765625 C 3.921875 -2.484375 4.65625 -2.21875 6.078125 -2.21875 C 7.5 -2.21875 8.359375 -2.515625 8.359375 -3.234375 C 8.359375 -3.5625 8.09375 -3.8125 7.328125 -4.046875 C 7.328125 -4.046875 3.65625 -5.1875 3.65625 -5.1875 C 1.453125 -5.875 1.0625 -6.671875 1.0625 -8.125 C 1.0625 -10.5625 2.921875 -12.078125 5.9375 -12.078125 C 9.125 -12.078125 11.0625 -10.5625 11.109375 -8.046875 C 11.109375 -8.046875 8.140625 -8.046875 8.140625 -8.046875 C 8.125 -9.125 7.390625 -9.65625 5.921875 -9.65625 C 4.84375 -9.65625 4.140625 -9.21875 4.140625 -8.5625 C 4.140625 -8.078125 4.359375 -7.875 5.21875 -7.640625 C 5.21875 -7.640625 9.109375 -6.515625 9.109375 -6.515625 C 10.671875 -6.046875 11.4375 -5.03125 11.4375 -3.671875 C 11.4375 -3.671875 11.4375 -3.515625 11.4375 -3.515625 Z M 11.4375 -3.515625 "/>
</g>
<g id="glyph-22-15-7194f9cd">
<path d="M 12.015625 0 C 12.015625 0 8.9375 0 8.9375 0 C 8.9375 0 8.9375 -7.328125 8.9375 -7.328125 C 8.9375 -8.734375 8.265625 -9.453125 6.953125 -9.453125 C 5.453125 -9.453125 4.46875 -8.53125 4.46875 -7.125 C 4.46875 -7.125 4.46875 0 4.46875 0 C 4.46875 0 1.390625 0 1.390625 0 C 1.390625 0 1.390625 -11.875 1.390625 -11.875 C 1.390625 -11.875 4.46875 -11.875 4.46875 -11.875 C 4.46875 -11.875 4.46875 -10.15625 4.46875 -10.15625 C 5.34375 -11.484375 6.421875 -12.078125 8.03125 -12.078125 C 10.5625 -12.078125 12.015625 -10.578125 12.015625 -7.96875 C 12.015625 -7.96875 12.015625 0 12.015625 0 Z M 12.015625 0 "/>
</g>
<g id="glyph-23-0-7194f9cd">
<path d="M 6.5625 -4.546875 C 6.5625 -4.546875 0.578125 -4.546875 0.578125 -4.546875 C 0.578125 -4.546875 0.578125 -7.53125 0.578125 -7.53125 C 0.578125 -7.53125 6.5625 -7.53125 6.5625 -7.53125 C 6.5625 -7.53125 6.5625 -4.546875 6.5625 -4.546875 Z M 6.5625 -4.546875 "/>
</g>
<g id="glyph-24-0-7194f9cd">
<path d="M -0.046875 -10.703125 C 0.09375 -10.15625 0.140625 -9.90625 0.140625 -9.5625 C 0.140625 -8.734375 -0.4375 -8.015625 -1.234375 -7.84375 C -0.265625 -6.921875 0.296875 -5.625 0.296875 -4.28125 C 0.296875 -2.15625 -0.8125 -0.84375 -2.71875 -0.84375 C -4 -0.84375 -4.9375 -1.453125 -5.4375 -2.6875 C -5.703125 -3.3125 -5.78125 -3.6875 -6.078125 -6.046875 C -6.234375 -7.359375 -6.546875 -7.78125 -7.234375 -7.78125 C -7.234375 -7.78125 -7.6875 -7.78125 -7.6875 -7.78125 C -8.6875 -7.78125 -9.234375 -6.9375 -9.234375 -5.4375 C -9.234375 -3.875 -8.65625 -3.125 -7.375 -2.984375 C -7.375 -2.984375 -7.375 -1.296875 -7.375 -1.296875 C -9.796875 -1.40625 -10.78125 -2.953125 -10.78125 -5.5 C -10.78125 -8.078125 -9.78125 -9.4375 -7.921875 -9.4375 C -7.921875 -9.4375 -2.078125 -9.4375 -2.078125 -9.4375 C -1.5625 -9.4375 -1.265625 -9.765625 -1.265625 -10.34375 C -1.265625 -10.4375 -1.265625 -10.515625 -1.296875 -10.703125 C -1.296875 -10.703125 -0.046875 -10.703125 -0.046875 -10.703125 Z M -3.625 -7.78125 C -3.625 -7.78125 -5.1875 -7.78125 -5.1875 -7.78125 C -4.921875 -7.21875 -4.84375 -6.859375 -4.59375 -5.09375 C -4.34375 -3.3125 -3.859375 -2.578125 -2.765625 -2.578125 C -1.625 -2.578125 -1.15625 -3.34375 -1.15625 -4.640625 C -1.15625 -6.265625 -2.125 -7.78125 -3.625 -7.78125 Z M -3.625 -7.78125 "/>
</g>
<g id="glyph-25-0-7194f9cd">
<path d="M -4.765625 -10.265625 C -4.765625 -10.265625 -4.765625 -2.546875 -4.765625 -2.546875 C -2.359375 -2.578125 -1.234375 -3.875 -1.234375 -5.625 C -1.234375 -6.953125 -1.796875 -7.90625 -3.1875 -8.359375 C -3.1875 -8.359375 -3.1875 -10.046875 -3.1875 -10.046875 C -1.0625 -9.625 0.296875 -7.953125 0.296875 -5.5625 C 0.296875 -2.625 -1.734375 -0.796875 -5.1875 -0.796875 C -8.625 -0.796875 -10.78125 -2.6875 -10.78125 -5.59375 C -10.78125 -7.5625 -9.734375 -9.15625 -8.015625 -9.84375 C -7.234375 -10.140625 -6.28125 -10.265625 -4.765625 -10.265625 Z M -6.234375 -8.484375 C -7.875 -8.484375 -9.234375 -7.21875 -9.234375 -5.578125 C -9.234375 -3.90625 -7.984375 -2.71875 -6.125 -2.578125 C -6.125 -2.578125 -6.125 -8.453125 -6.125 -8.453125 C -6.15625 -8.484375 -6.234375 -8.484375 -6.234375 -8.484375 Z M -6.234375 -8.484375 "/>
</g>
<g id="glyph-26-0-7194f9cd">
<path d="M 0 -10.046875 C 0 -10.046875 0 -7.984375 0 -7.984375 C 0 -7.984375 -5.6875 -4.4375 -5.6875 -4.4375 C -5.6875 -4.4375 -4.078125 -2.8125 -4.078125 -2.8125 C -4.078125 -2.8125 0 -2.8125 0 -2.8125 C 0 -2.8125 0 -1.15625 0 -1.15625 C 0 -1.15625 -14.578125 -1.15625 -14.578125 -1.15625 C -14.578125 -1.15625 -14.578125 -2.8125 -14.578125 -2.8125 C -14.578125 -2.8125 -6.046875 -2.8125 -6.046875 -2.8125 C -6.046875 -2.8125 -10.484375 -7.265625 -10.484375 -7.265625 C -10.484375 -7.265625 -10.484375 -9.40625 -10.484375 -9.40625 C -10.484375 -9.40625 -6.859375 -5.765625 -6.859375 -5.765625 C -6.859375 -5.765625 0 -10.046875 0 -10.046875 Z M 0 -10.046875 "/>
</g>
<g id="glyph-27-0-7194f9cd">
<path d="M -0.046875 -10.703125 C 0.09375 -10.15625 0.140625 -9.90625 0.140625 -9.5625 C 0.140625 -8.734375 -0.4375 -8.015625 -1.234375 -7.84375 C -0.265625 -6.921875 0.296875 -5.625 0.296875 -4.28125 C 0.296875 -2.15625 -0.8125 -0.84375 -2.71875 -0.84375 C -4 -0.84375 -4.9375 -1.453125 -5.4375 -2.6875 C -5.703125 -3.3125 -5.78125 -3.6875 -6.078125 -6.046875 C -6.234375 -7.359375 -6.546875 -7.78125 -7.234375 -7.78125 C -7.234375 -7.78125 -7.6875 -7.78125 -7.6875 -7.78125 C -8.6875 -7.78125 -9.234375 -6.9375 -9.234375 -5.4375 C -9.234375 -3.875 -8.65625 -3.125 -7.375 -2.984375 C -7.375 -2.984375 -7.375 -1.296875 -7.375 -1.296875 C -9.796875 -1.40625 -10.78125 -2.953125 -10.78125 -5.5 C -10.78125 -8.078125 -9.78125 -9.4375 -7.921875 -9.4375 C -7.921875 -9.4375 -2.078125 -9.4375 -2.078125 -9.4375 C -1.5625 -9.4375 -1.265625 -9.765625 -1.265625 -10.34375 C -1.265625 -10.4375 -1.265625 -10.515625 -1.296875 -10.703125 C -1.296875 -10.703125 -0.046875 -10.703125 -0.046875 -10.703125 Z M -3.625 -7.78125 C -3.625 -7.78125 -5.1875 -7.78125 -5.1875 -7.78125 C -4.921875 -7.21875 -4.84375 -6.859375 -4.59375 -5.09375 C -4.34375 -3.3125 -3.859375 -2.578125 -2.765625 -2.578125 C -1.625 -2.578125 -1.15625 -3.34375 -1.15625 -4.640625 C -1.15625 -6.265625 -2.125 -7.78125 -3.625 -7.78125 Z M -3.625 -7.78125 "/>
</g>
<g id="glyph-28-0-7194f9cd">
<path d="M -1.71875 -9.78125 C 2.90625 -9.78125 4.359375 -8.375 4.359375 -5.09375 C 4.359375 -2.640625 3.1875 -1.09375 1.203125 -0.921875 C 1.203125 -0.921875 1.203125 -2.625 1.203125 -2.625 C 2.484375 -2.8125 2.953125 -3.84375 2.953125 -5.15625 C 2.953125 -7.09375 1.90625 -8.234375 -0.875 -8.234375 C -0.875 -8.234375 -1.578125 -8.234375 -1.578125 -8.234375 C -0.265625 -7.140625 0.296875 -6.21875 0.296875 -4.90625 C 0.296875 -2.4375 -1.84375 -0.578125 -5.140625 -0.578125 C -8.546875 -0.578125 -10.78125 -2.375 -10.78125 -5.046875 C -10.78125 -6.375 -10.203125 -7.40625 -8.953125 -8.234375 C -8.953125 -8.234375 -10.484375 -8.234375 -10.484375 -8.234375 C -10.484375 -8.234375 -10.484375 -9.78125 -10.484375 -9.78125 C -10.484375 -9.78125 -1.71875 -9.78125 -1.71875 -9.78125 Z M -5.1875 -8.078125 C -7.71875 -8.078125 -9.234375 -7.015625 -9.234375 -5.21875 C -9.234375 -3.4375 -7.765625 -2.3125 -5.234375 -2.3125 C -2.703125 -2.3125 -1.234375 -3.421875 -1.234375 -5.234375 C -1.234375 -7 -2.6875 -8.078125 -5.1875 -8.078125 Z M -5.1875 -8.078125 "/>
</g>
<g id="glyph-29-0-7194f9cd">
<path d="M -4.765625 -10.265625 C -4.765625 -10.265625 -4.765625 -2.546875 -4.765625 -2.546875 C -2.359375 -2.578125 -1.234375 -3.875 -1.234375 -5.625 C -1.234375 -6.953125 -1.796875 -7.90625 -3.1875 -8.359375 C -3.1875 -8.359375 -3.1875 -10.046875 -3.1875 -10.046875 C -1.0625 -9.625 0.296875 -7.953125 0.296875 -5.5625 C 0.296875 -2.625 -1.734375 -0.796875 -5.1875 -0.796875 C -8.625 -0.796875 -10.78125 -2.6875 -10.78125 -5.59375 C -10.78125 -7.5625 -9.734375 -9.15625 -8.015625 -9.84375 C -7.234375 -10.140625 -6.28125 -10.265625 -4.765625 -10.265625 Z M -6.234375 -8.484375 C -7.875 -8.484375 -9.234375 -7.21875 -9.234375 -5.578125 C -9.234375 -3.90625 -7.984375 -2.71875 -6.125 -2.578125 C -6.125 -2.578125 -6.125 -8.453125 -6.125 -8.453125 C -6.15625 -8.484375 -6.234375 -8.484375 -6.234375 -8.484375 Z M -6.234375 -8.484375 "/>
</g>
<g id="glyph-30-0-7194f9cd">
<path d="M 8.109375 -5.453125 C 8.109375 -1.734375 6.796875 0.234375 4.40625 0.234375 C 1.96875 0.234375 0.6875 -1.734375 0.6875 -5.546875 C 0.6875 -9.359375 1.953125 -11.34375 4.40625 -11.34375 C 6.859375 -11.34375 8.109375 -9.390625 8.109375 -5.453125 Z M 6.671875 -5.578125 C 6.671875 -8.625 5.921875 -10.09375 4.40625 -10.09375 C 2.875 -10.09375 2.125 -8.640625 2.125 -5.53125 C 2.125 -2.4375 2.875 -0.921875 4.375 -0.921875 C 5.9375 -0.921875 6.671875 -2.375 6.671875 -5.578125 Z M 6.671875 -5.578125 "/>
</g>
</g>
<clipPath id="clip-0-7194f9cd">
<path clip-rule="nonzero" d="M 603 42 L 605 42 L 605 334 L 603 334 Z M 603 42 "/>
</clipPath>
<clipPath id="clip-1-7194f9cd">
<path clip-rule="nonzero" d="M 603 404 L 605 404 L 605 696 L 603 696 Z M 603 404 "/>
</clipPath>
</defs>
<rect x="-92" y="-76" width="1104" height="912" fill="rgb(100%, 100%, 100%)" fill-opacity="1"/>
<path fill-rule="nonzero" fill="rgb(100%, 100%, 100%)" fill-opacity="1" d="M 89 334 L 908 334 L 908 42 L 89 42 Z M 89 334 "/>
<path fill-rule="nonzero" fill="rgb(100%, 100%, 100%)" fill-opacity="1" d="M 89 696 L 908 696 L 908 404 L 89 404 Z M 89 696 "/>
<g fill="rgb(0%, 0%, 0%)" fill-opacity="1">
<use xlink:href="#glyph-0-0-7194f9cd" x="479.609979" y="382.579999"/>
</g>
<g fill="rgb(0%, 0%, 0%)" fill-opacity="1">
<use xlink:href="#glyph-0-1-7194f9cd" x="485.169978" y="382.579999"/>
</g>
<g fill="rgb(0%, 0%, 0%)" fill-opacity="1">
<use xlink:href="#glyph-0-2-7194f9cd" x="489.609978" y="382.579999"/>
</g>
<g fill="rgb(0%, 0%, 0%)" fill-opacity="1">
<use xlink:href="#glyph-1-0-7194f9cd" x="506.269977" y="382.579999"/>
</g>
<g fill="rgb(0%, 0%, 0%)" fill-opacity="1">
<use xlink:href="#glyph-2-0-7194f9cd" x="121.779267" y="357.151983"/>
</g>
<g fill="rgb(0%, 0%, 0%)" fill-opacity="1">
<use xlink:href="#glyph-2-1-7194f9cd" x="489.603978" y="357.151983"/>
</g>
<g fill="rgb(0%, 0%, 0%)" fill-opacity="1">
<use xlink:href="#glyph-2-0-7194f9cd" x="498.499977" y="357.151983"/>
</g>
<g fill="rgb(0%, 0%, 0%)" fill-opacity="1">
<use xlink:href="#glyph-2-2-7194f9cd" x="857.428666" y="357.151983"/>
</g>
<g fill="rgb(0%, 0%, 0%)" fill-opacity="1">
<use xlink:href="#glyph-2-0-7194f9cd" x="866.324666" y="357.151983"/>
</g>
<g fill="rgb(0%, 0%, 0%)" fill-opacity="1">
<use xlink:href="#glyph-2-0-7194f9cd" x="875.220665" y="357.151983"/>
</g>
<g fill="rgb(0%, 0%, 0%)" fill-opacity="1">
<use xlink:href="#glyph-3-0-7194f9cd" x="38.055994" y="281.939967"/>
</g>
<g fill="rgb(0%, 0%, 0%)" fill-opacity="1">
<use xlink:href="#glyph-4-0-7194f9cd" x="38.055995" y="271.939966"/>
</g>
<g fill="rgb(0%, 0%, 0%)" fill-opacity="1">
<use xlink:href="#glyph-5-0-7194f9cd" x="38.055995" y="260.819963"/>
</g>
<g fill="rgb(0%, 0%, 0%)" fill-opacity="1">
<use xlink:href="#glyph-6-0-7194f9cd" x="38.055996" y="249.699971"/>
</g>
<g fill="rgb(0%, 0%, 0%)" fill-opacity="1">
<use xlink:href="#glyph-7-0-7194f9cd" x="38.055997" y="238.579972"/>
</g>
<g fill="rgb(0%, 0%, 0%)" fill-opacity="1">
<use xlink:href="#glyph-6-1-7194f9cd" x="38.055997" y="234.139973"/>
</g>
<g fill="rgb(0%, 0%, 0%)" fill-opacity="1">
<use xlink:href="#glyph-8-0-7194f9cd" x="38.055997" y="228.579971"/>
</g>
<g fill="rgb(0%, 0%, 0%)" fill-opacity="1">
<use xlink:href="#glyph-9-0-7194f9cd" x="38.055997" y="224.139973"/>
</g>
<g fill="rgb(0%, 0%, 0%)" fill-opacity="1">
<use xlink:href="#glyph-8-1-7194f9cd" x="38.055998" y="213.019971"/>
</g>
<g fill="rgb(0%, 0%, 0%)" fill-opacity="1">
<use xlink:href="#glyph-7-1-7194f9cd" x="38.055998" y="201.899969"/>
</g>
<g fill="rgb(0%, 0%, 0%)" fill-opacity="1">
<use xlink:href="#glyph-10-0-7194f9cd" x="38.055999" y="190.779966"/>
</g>
<g fill="rgb(0%, 0%, 0%)" fill-opacity="1">
<use xlink:href="#glyph-7-2-7194f9cd" x="38.055999" y="186.339964"/>
</g>
<g fill="rgb(0%, 0%, 0%)" fill-opacity="1">
<use xlink:href="#glyph-11-0-7194f9cd" x="38.056" y="180.779966"/>
</g>
<g fill="rgb(0%, 0%, 0%)" fill-opacity="1">
<use xlink:href="#glyph-7-3-7194f9cd" x="38.056" y="169.659965"/>
</g>
<g fill="rgb(0%, 0%, 0%)" fill-opacity="1">
<use xlink:href="#glyph-12-0-7194f9cd" x="38.056001" y="158.539962"/>
</g>
<g fill="rgb(0%, 0%, 0%)" fill-opacity="1">
<use xlink:href="#glyph-13-0-7194f9cd" x="38.056002" y="147.419968"/>
</g>
<g fill="rgb(0%, 0%, 0%)" fill-opacity="1">
<use xlink:href="#glyph-14-0-7194f9cd" x="38.056002" y="137.419968"/>
</g>
<g fill="rgb(0%, 0%, 0%)" fill-opacity="1">
<use xlink:href="#glyph-15-0-7194f9cd" x="38.056003" y="126.299972"/>
</g>
<g fill="rgb(0%, 0%, 0%)" fill-opacity="1">
<use xlink:href="#glyph-15-1-7194f9cd" x="38.056003" y="120.739978"/>
</g>
<g fill="rgb(0%, 0%, 0%)" fill-opacity="1">
<use xlink:href="#glyph-16-0-7194f9cd" x="38.056004" y="115.17998"/>
</g>
<g fill="rgb(0%, 0%, 0%)" fill-opacity="1">
<use xlink:href="#glyph-15-2-7194f9cd" x="38.056004" y="109.619983"/>
</g>
<g fill="rgb(0%, 0%, 0%)" fill-opacity="1">
<use xlink:href="#glyph-16-1-7194f9cd" x="38.056005" y="98.499987"/>
</g>
<g fill="rgb(0%, 0%, 0%)" fill-opacity="1">
<use xlink:href="#glyph-2-3-7194f9cd" x="47.415998" y="327.895916"/>
</g>
<g fill="rgb(0%, 0%, 0%)" fill-opacity="1">
<use xlink:href="#glyph-17-0-7194f9cd" x="56.759998" y="327.895916"/>
</g>
<g fill="rgb(0%, 0%, 0%)" fill-opacity="1">
<use xlink:href="#glyph-2-4-7194f9cd" x="65.655997" y="327.895916"/>
</g>
<g fill="rgb(0%, 0%, 0%)" fill-opacity="1">
<use xlink:href="#glyph-2-0-7194f9cd" x="70.103997" y="327.895916"/>
</g>
<g fill="rgb(0%, 0%, 0%)" fill-opacity="1">
<use xlink:href="#glyph-2-3-7194f9cd" x="47.415998" y="261.098092"/>
</g>
<g fill="rgb(0%, 0%, 0%)" fill-opacity="1">
<use xlink:href="#glyph-17-1-7194f9cd" x="56.759998" y="261.098092"/>
</g>
<g fill="rgb(0%, 0%, 0%)" fill-opacity="1">
<use xlink:href="#glyph-2-4-7194f9cd" x="65.655997" y="261.098092"/>
</g>
<g fill="rgb(0%, 0%, 0%)" fill-opacity="1">
<use xlink:href="#glyph-2-1-7194f9cd" x="70.103997" y="261.098092"/>
</g>
<g fill="rgb(0%, 0%, 0%)" fill-opacity="1">
<use xlink:href="#glyph-17-1-7194f9cd" x="56.759998" y="194.300238"/>
</g>
<g fill="rgb(0%, 0%, 0%)" fill-opacity="1">
<use xlink:href="#glyph-2-4-7194f9cd" x="65.655997" y="194.300238"/>
</g>
<g fill="rgb(0%, 0%, 0%)" fill-opacity="1">
<use xlink:href="#glyph-2-0-7194f9cd" x="70.103997" y="194.300238"/>
</g>
<g fill="rgb(0%, 0%, 0%)" fill-opacity="1">
<use xlink:href="#glyph-18-0-7194f9cd" x="56.759998" y="127.502444"/>
</g>
<g fill="rgb(0%, 0%, 0%)" fill-opacity="1">
<use xlink:href="#glyph-19-0-7194f9cd" x="65.655997" y="127.502444"/>
</g>
<g fill="rgb(0%, 0%, 0%)" fill-opacity="1">
<use xlink:href="#glyph-19-1-7194f9cd" x="70.103997" y="127.502444"/>
</g>
<g fill="rgb(0%, 0%, 0%)" fill-opacity="1">
<use xlink:href="#glyph-20-0-7194f9cd" x="56.759998" y="60.70459"/>
</g>
<g fill="rgb(0%, 0%, 0%)" fill-opacity="1">
<use xlink:href="#glyph-21-0-7194f9cd" x="65.655997" y="60.70459"/>
</g>
<g fill="rgb(0%, 0%, 0%)" fill-opacity="1">
<use xlink:href="#glyph-21-1-7194f9cd" x="70.103997" y="60.70459"/>
</g>
<g fill="rgb(0%, 0%, 0%)" fill-opacity="1">
<use xlink:href="#glyph-22-0-7194f9cd" x="337.735" y="33.203969"/>
</g>
<g fill="rgb(0%, 0%, 0%)" fill-opacity="1">
<use xlink:href="#glyph-22-1-7194f9cd" x="353.619002" y="33.203969"/>
</g>
<g fill="rgb(0%, 0%, 0%)" fill-opacity="1">
<use xlink:href="#glyph-22-2-7194f9cd" x="367.061003" y="33.203969"/>
</g>
<g fill="rgb(0%, 0%, 0%)" fill-opacity="1">
<use xlink:href="#glyph-22-3-7194f9cd" x="386.619001" y="33.203969"/>
</g>
<g fill="rgb(0%, 0%, 0%)" fill-opacity="1">
<use xlink:href="#glyph-22-4-7194f9cd" x="400.061002" y="33.203969"/>
</g>
<g fill="rgb(0%, 0%, 0%)" fill-opacity="1">
<use xlink:href="#glyph-22-5-7194f9cd" x="412.293003" y="33.203969"/>
</g>
<g fill="rgb(0%, 0%, 0%)" fill-opacity="1">
<use xlink:href="#glyph-22-6-7194f9cd" x="424.525005" y="33.203969"/>
</g>
<g fill="rgb(0%, 0%, 0%)" fill-opacity="1">
<use xlink:href="#glyph-22-7-7194f9cd" x="431.851009" y="33.203969"/>
</g>
<g fill="rgb(0%, 0%, 0%)" fill-opacity="1">
<use xlink:href="#glyph-22-8-7194f9cd" x="437.967006" y="33.203969"/>
</g>
<g fill="rgb(0%, 0%, 0%)" fill-opacity="1">
<use xlink:href="#glyph-22-9-7194f9cd" x="450.199007" y="33.203969"/>
</g>
<g fill="rgb(0%, 0%, 0%)" fill-opacity="1">
<use xlink:href="#glyph-22-4-7194f9cd" x="462.431009" y="33.203969"/>
</g>
<g fill="rgb(0%, 0%, 0%)" fill-opacity="1">
<use xlink:href="#glyph-22-5-7194f9cd" x="474.663003" y="33.203969"/>
</g>
<g fill="rgb(0%, 0%, 0%)" fill-opacity="1">
<use xlink:href="#glyph-22-6-7194f9cd" x="486.894997" y="33.203969"/>
</g>
<g fill="rgb(0%, 0%, 0%)" fill-opacity="1">
<use xlink:href="#glyph-23-0-7194f9cd" x="494.221001" y="33.203969"/>
</g>
<g fill="rgb(0%, 0%, 0%)" fill-opacity="1">
<use xlink:href="#glyph-22-5-7194f9cd" x="501.547005" y="33.203969"/>
</g>
<g fill="rgb(0%, 0%, 0%)" fill-opacity="1">
<use xlink:href="#glyph-22-10-7194f9cd" x="513.778999" y="33.203969"/>
</g>
<g fill="rgb(0%, 0%, 0%)" fill-opacity="1">
<use xlink:href="#glyph-22-11-7194f9cd" x="519.894996" y="33.203969"/>
</g>
<g fill="rgb(0%, 0%, 0%)" fill-opacity="1">
<use xlink:href="#glyph-22-5-7194f9cd" x="528.452994" y="33.203969"/>
</g>
<g fill="rgb(0%, 0%, 0%)" fill-opacity="1">
<use xlink:href="#glyph-22-12-7194f9cd" x="540.684988" y="33.203969"/>
</g>
<g fill="rgb(0%, 0%, 0%)" fill-opacity="1">
<use xlink:href="#glyph-22-10-7194f9cd" x="554.126989" y="33.203969"/>
</g>
<g fill="rgb(0%, 0%, 0%)" fill-opacity="1">
<use xlink:href="#glyph-22-6-7194f9cd" x="560.242986" y="33.203969"/>
</g>
<g fill="rgb(0%, 0%, 0%)" fill-opacity="1">
<use xlink:href="#glyph-22-7-7194f9cd" x="567.56899" y="33.203969"/>
</g>
<g fill="rgb(0%, 0%, 0%)" fill-opacity="1">
<use xlink:href="#glyph-22-0-7194f9cd" x="573.684987" y="33.203969"/>
</g>
<g fill="rgb(0%, 0%, 0%)" fill-opacity="1">
<use xlink:href="#glyph-22-13-7194f9cd" x="589.568989" y="33.203969"/>
</g>
<g fill="rgb(0%, 0%, 0%)" fill-opacity="1">
<use xlink:href="#glyph-22-7-7194f9cd" x="603.010989" y="33.203969"/>
</g>
<g fill="rgb(0%, 0%, 0%)" fill-opacity="1">
<use xlink:href="#glyph-22-14-7194f9cd" x="609.126986" y="33.203969"/>
</g>
<g fill="rgb(0%, 0%, 0%)" fill-opacity="1">
<use xlink:href="#glyph-22-5-7194f9cd" x="621.35898" y="33.203969"/>
</g>
<g fill="rgb(0%, 0%, 0%)" fill-opacity="1">
<use xlink:href="#glyph-22-4-7194f9cd" x="633.590975" y="33.203969"/>
</g>
<g fill="rgb(0%, 0%, 0%)" fill-opacity="1">
<use xlink:href="#glyph-22-15-7194f9cd" x="645.822969" y="33.203969"/>
</g>
<path fill="none" stroke-width="3" stroke-linecap="butt" stroke-linejoin="miter" stroke="rgb(22.745098%, 37.254903%, 80.392158%)" stroke-opacity="1" stroke-miterlimit="2" d="M 126.226562 188.46875 L 132.433594 190.210938 L 138.636719 191.957031 L 144.839844 193.699219 L 151.046875 195.445312 L 163.453125 198.9375 L 169.660156 200.679688 L 175.863281 202.425781 L 182.066406 204.167969 L 188.273438 205.914062 L 194.476562 207.65625 L 200.683594 209.394531 L 213.089844 212.878906 L 219.296875 214.617188 L 225.5 216.363281 L 231.703125 218.105469 L 237.910156 219.851562 L 250.316406 223.34375 L 256.523438 225.089844 L 262.726562 226.835938 L 268.933594 228.582031 L 281.339844 232.066406 L 287.546875 233.804688 L 293.75 235.542969 L 299.953125 237.277344 L 306.160156 239.015625 L 318.566406 242.492188 L 324.773438 244.234375 L 330.976562 245.980469 L 337.183594 247.726562 L 343.386719 249.472656 L 349.589844 251.222656 L 355.796875 252.972656 L 368.203125 256.457031 L 374.410156 258.199219 L 380.613281 259.9375 L 386.816406 261.664062 L 393.023438 263.390625 L 399.226562 265.121094 L 405.433594 266.847656 L 411.636719 268.574219 L 417.839844 270.304688 L 424.046875 272.039062 L 436.453125 275.515625 L 442.660156 277.261719 L 448.863281 279.007812 L 455.066406 280.75 L 461.273438 282.496094 L 467.476562 284.238281 L 473.683594 285.980469 L 479.886719 287.714844 L 486.089844 289.445312 L 492.296875 291.179688 L 504.703125 294.640625 L 510.910156 296.367188 L 517.113281 298.097656 L 523.316406 299.835938 L 529.523438 301.570312 L 535.726562 303.308594 L 541.933594 305.050781 L 548.136719 306.796875 L 554.339844 308.539062 L 560.546875 310.285156 L 572.953125 313.769531 L 579.160156 315.507812 L 585.363281 317.246094 L 591.566406 318.988281 L 597.773438 320.726562 L 603.976562 55.273438 L 610.183594 57.011719 L 616.386719 58.761719 L 622.589844 60.507812 L 628.796875 62.25 L 635 63.996094 L 641.203125 65.75 L 647.410156 67.503906 L 653.613281 69.25 L 659.816406 71 L 666.023438 72.746094 L 672.226562 74.496094 L 678.433594 76.242188 L 690.839844 79.734375 L 697.046875 81.480469 L 703.25 83.226562 L 709.453125 84.980469 L 715.660156 86.734375 L 721.863281 88.480469 L 728.066406 90.230469 L 734.273438 91.984375 L 740.476562 93.738281 L 746.683594 95.484375 L 752.886719 97.230469 L 759.089844 98.980469 L 765.296875 100.730469 L 777.703125 104.214844 L 783.910156 105.960938 L 796.316406 109.445312 L 802.523438 111.1875 L 808.726562 112.933594 L 814.933594 114.679688 L 821.136719 116.417969 L 827.339844 118.164062 L 833.546875 119.910156 L 839.75 121.652344 L 845.953125 123.386719 L 852.160156 125.128906 L 864.566406 128.613281 L 870.773438 130.347656 "/>
<path fill-rule="nonzero" fill="rgb(0%, 0%, 0%)" fill-opacity="1" d="M 608.914062 55.273438 C 608.914062 48.691406 599.042969 48.691406 599.042969 55.273438 C 599.042969 61.851562 608.914062 61.851562 608.914062 55.273438 Z M 608.914062 55.273438 "/>
<g clip-path="url(#clip-0-7194f9cd)">
<path fill="none" stroke-width="1.5" stroke-linecap="butt" stroke-linejoin="miter" stroke="rgb(0%, 0%, 0%)" stroke-opacity="1" stroke-dasharray="1.5 3" stroke-miterlimit="1.154701" d="M 603.976562 334 L 603.976562 42 "/>
</g>
<g fill="rgb(0%, 0%, 0%)" fill-opacity="1">
<use xlink:href="#glyph-0-0-7194f9cd" x="479.609979" y="744.579999"/>
</g>
<g fill="rgb(0%, 0%, 0%)" fill-opacity="1">
<use xlink:href="#glyph-0-1-7194f9cd" x="485.169978" y="744.579999"/>
</g>
<g fill="rgb(0%, 0%, 0%)" fill-opacity="1">
<use xlink:href="#glyph-0-2-7194f9cd" x="489.609978" y="744.579999"/>
</g>
<g fill="rgb(0%, 0%, 0%)" fill-opacity="1">
<use xlink:href="#glyph-1-0-7194f9cd" x="506.269977" y="744.579999"/>
</g>
<g fill="rgb(0%, 0%, 0%)" fill-opacity="1">
<use xlink:href="#glyph-2-0-7194f9cd" x="121.779267" y="719.151999"/>
</g>
<g fill="rgb(0%, 0%, 0%)" fill-opacity="1">
<use xlink:href="#glyph-2-1-7194f9cd" x="489.603978" y="719.151999"/>
</g>
<g fill="rgb(0%, 0%, 0%)" fill-opacity="1">
<use xlink:href="#glyph-2-0-7194f9cd" x="498.499977" y="719.151999"/>
</g>
<g fill="rgb(0%, 0%, 0%)" fill-opacity="1">
<use xlink:href="#glyph-2-2-7194f9cd" x="857.428666" y="719.151999"/>
</g>
<g fill="rgb(0%, 0%, 0%)" fill-opacity="1">
<use xlink:href="#glyph-2-0-7194f9cd" x="866.324666" y="719.151999"/>
</g>
<g fill="rgb(0%, 0%, 0%)" fill-opacity="1">
<use xlink:href="#glyph-2-0-7194f9cd" x="875.220665" y="719.151999"/>
</g>
<g fill="rgb(0%, 0%, 0%)" fill-opacity="1">
<use xlink:href="#glyph-5-1-7194f9cd" x="29.607998" y="606.689992"/>
</g>
<g fill="rgb(0%, 0%, 0%)" fill-opacity="1">
<use xlink:href="#glyph-24-0-7194f9cd" x="29.607999" y="590.029991"/>
</g>
<g fill="rgb(0%, 0%, 0%)" fill-opacity="1">
<use xlink:href="#glyph-7-4-7194f9cd" x="29.608" y="578.909994"/>
</g>
<g fill="rgb(0%, 0%, 0%)" fill-opacity="1">
<use xlink:href="#glyph-7-2-7194f9cd" x="29.608001" y="568.909994"/>
</g>
<g fill="rgb(0%, 0%, 0%)" fill-opacity="1">
<use xlink:href="#glyph-7-5-7194f9cd" x="29.608001" y="563.349993"/>
</g>
<g fill="rgb(0%, 0%, 0%)" fill-opacity="1">
<use xlink:href="#glyph-25-0-7194f9cd" x="29.608001" y="558.909994"/>
</g>
<g fill="rgb(0%, 0%, 0%)" fill-opacity="1">
<use xlink:href="#glyph-7-1-7194f9cd" x="29.608002" y="547.789996"/>
</g>
<g fill="rgb(0%, 0%, 0%)" fill-opacity="1">
<use xlink:href="#glyph-26-0-7194f9cd" x="29.608003" y="536.669997"/>
</g>
<g fill="rgb(0%, 0%, 0%)" fill-opacity="1">
<use xlink:href="#glyph-27-0-7194f9cd" x="29.608003" y="526.669998"/>
</g>
<g fill="rgb(0%, 0%, 0%)" fill-opacity="1">
<use xlink:href="#glyph-28-0-7194f9cd" x="29.608004" y="515.549996"/>
</g>
<g fill="rgb(0%, 0%, 0%)" fill-opacity="1">
<use xlink:href="#glyph-29-0-7194f9cd" x="29.608005" y="504.429993"/>
</g>
<g fill="rgb(0%, 0%, 0%)" fill-opacity="1">
<use xlink:href="#glyph-2-0-7194f9cd" x="38.968001" y="688.559269"/>
</g>
<g fill="rgb(0%, 0%, 0%)" fill-opacity="1">
<use xlink:href="#glyph-2-4-7194f9cd" x="47.864" y="688.559269"/>
</g>
<g fill="rgb(0%, 0%, 0%)" fill-opacity="1">
<use xlink:href="#glyph-17-1-7194f9cd" x="52.312" y="688.559269"/>
</g>
<g fill="rgb(0%, 0%, 0%)" fill-opacity="1">
<use xlink:href="#glyph-30-0-7194f9cd" x="61.207999" y="688.559269"/>
</g>
<g fill="rgb(0%, 0%, 0%)" fill-opacity="1">
<use xlink:href="#glyph-2-0-7194f9cd" x="70.103999" y="688.559269"/>
</g>
<g fill="rgb(0%, 0%, 0%)" fill-opacity="1">
<use xlink:href="#glyph-2-0-7194f9cd" x="38.968001" y="644.367121"/>
</g>
<g fill="rgb(0%, 0%, 0%)" fill-opacity="1">
<use xlink:href="#glyph-2-4-7194f9cd" x="47.864" y="644.367121"/>
</g>
<g fill="rgb(0%, 0%, 0%)" fill-opacity="1">
<use xlink:href="#glyph-17-1-7194f9cd" x="52.312" y="644.367121"/>
</g>
<g fill="rgb(0%, 0%, 0%)" fill-opacity="1">
<use xlink:href="#glyph-30-0-7194f9cd" x="61.207999" y="644.367121"/>
</g>
<g fill="rgb(0%, 0%, 0%)" fill-opacity="1">
<use xlink:href="#glyph-2-2-7194f9cd" x="70.103999" y="644.367121"/>
</g>
<g fill="rgb(0%, 0%, 0%)" fill-opacity="1">
<use xlink:href="#glyph-2-0-7194f9cd" x="38.968001" y="600.17498"/>
</g>
<g fill="rgb(0%, 0%, 0%)" fill-opacity="1">
<use xlink:href="#glyph-2-4-7194f9cd" x="47.864" y="600.17498"/>
</g>
<g fill="rgb(0%, 0%, 0%)" fill-opacity="1">
<use xlink:href="#glyph-17-1-7194f9cd" x="52.312" y="600.17498"/>
</g>
<g fill="rgb(0%, 0%, 0%)" fill-opacity="1">
<use xlink:href="#glyph-30-0-7194f9cd" x="61.207999" y="600.17498"/>
</g>
<g fill="rgb(0%, 0%, 0%)" fill-opacity="1">
<use xlink:href="#glyph-2-5-7194f9cd" x="70.103999" y="600.17498"/>
</g>
<g fill="rgb(0%, 0%, 0%)" fill-opacity="1">
<use xlink:href="#glyph-2-0-7194f9cd" x="38.968001" y="555.982825"/>
</g>
<g fill="rgb(0%, 0%, 0%)" fill-opacity="1">
<use xlink:href="#glyph-2-4-7194f9cd" x="47.864" y="555.982825"/>
</g>
<g fill="rgb(0%, 0%, 0%)" fill-opacity="1">
<use xlink:href="#glyph-17-1-7194f9cd" x="52.312" y="555.982825"/>
</g>
<g fill="rgb(0%, 0%, 0%)" fill-opacity="1">
<use xlink:href="#glyph-30-0-7194f9cd" x="61.207999" y="555.982825"/>
</g>
<g fill="rgb(0%, 0%, 0%)" fill-opacity="1">
<use xlink:href="#glyph-2-6-7194f9cd" x="70.103999" y="555.982825"/>
</g>
<g fill="rgb(0%, 0%, 0%)" fill-opacity="1">
<use xlink:href="#glyph-2-0-7194f9cd" x="38.968001" y="511.790684"/>
</g>
<g fill="rgb(0%, 0%, 0%)" fill-opacity="1">
<use xlink:href="#glyph-2-4-7194f9cd" x="47.864" y="511.790684"/>
</g>
<g fill="rgb(0%, 0%, 0%)" fill-opacity="1">
<use xlink:href="#glyph-17-1-7194f9cd" x="52.312" y="511.790684"/>
</g>
<g fill="rgb(0%, 0%, 0%)" fill-opacity="1">
<use xlink:href="#glyph-30-0-7194f9cd" x="61.207999" y="511.790684"/>
</g>
<g fill="rgb(0%, 0%, 0%)" fill-opacity="1">
<use xlink:href="#glyph-2-7-7194f9cd" x="70.103999" y="511.790684"/>
</g>
<g fill="rgb(0%, 0%, 0%)" fill-opacity="1">
<use xlink:href="#glyph-2-0-7194f9cd" x="38.968001" y="467.598528"/>
</g>
<g fill="rgb(0%, 0%, 0%)" fill-opacity="1">
<use xlink:href="#glyph-2-4-7194f9cd" x="47.864" y="467.598528"/>
</g>
<g fill="rgb(0%, 0%, 0%)" fill-opacity="1">
<use xlink:href="#glyph-17-1-7194f9cd" x="52.312" y="467.598528"/>
</g>
<g fill="rgb(0%, 0%, 0%)" fill-opacity="1">
<use xlink:href="#glyph-30-0-7194f9cd" x="61.207999" y="467.598528"/>
</g>
<g fill="rgb(0%, 0%, 0%)" fill-opacity="1">
<use xlink:href="#glyph-2-1-7194f9cd" x="70.103999" y="467.598528"/>
</g>
<g fill="rgb(0%, 0%, 0%)" fill-opacity="1">
<use xlink:href="#glyph-2-0-7194f9cd" x="38.968001" y="423.406388"/>
</g>
<g fill="rgb(0%, 0%, 0%)" fill-opacity="1">
<use xlink:href="#glyph-2-4-7194f9cd" x="47.864" y="423.406388"/>
</g>
<g fill="rgb(0%, 0%, 0%)" fill-opacity="1">
<use xlink:href="#glyph-17-1-7194f9cd" x="52.312" y="423.406388"/>
</g>
<g fill="rgb(0%, 0%, 0%)" fill-opacity="1">
<use xlink:href="#glyph-30-0-7194f9cd" x="61.207999" y="423.406388"/>
</g>
<g fill="rgb(0%, 0%, 0%)" fill-opacity="1">
<use xlink:href="#glyph-2-8-7194f9cd" x="70.103999" y="423.406388"/>
</g>
<path fill="none" stroke-width="3" stroke-linecap="butt" stroke-linejoin="miter" stroke="rgb(80.392158%, 14.901961%, 14.901961%)" stroke-opacity="1" stroke-miterlimit="2" d="M 126.226562 682.726562 L 132.433594 674.976562 L 138.636719 662.425781 L 144.839844 654.910156 L 151.046875 651.757812 L 157.25 642.050781 L 163.453125 622.832031 L 169.660156 605.738281 L 175.863281 597.953125 L 182.066406 596.683594 L 188.273438 591.925781 L 194.476562 582.714844 L 200.683594 576.636719 L 206.886719 580.84375 L 213.089844 588.714844 L 219.296875 590.449219 L 225.5 583.285156 L 231.703125 578.054688 L 237.910156 581 L 244.113281 582.199219 L 250.316406 573.273438 L 256.523438 555.648438 L 262.726562 544.695312 L 268.933594 541.253906 L 275.136719 535.996094 L 281.339844 523.152344 L 287.546875 508.402344 L 293.75 499.058594 L 299.953125 495.691406 L 306.160156 495.101562 L 312.363281 491.710938 L 318.566406 487.042969 L 324.773438 484.074219 L 330.976562 486.714844 L 337.183594 489.09375 L 343.386719 484.65625 L 349.589844 474.363281 L 355.796875 466.148438 L 362 464.71875 L 368.203125 459.644531 L 374.410156 448.164062 L 380.613281 434.390625 L 386.816406 428.914062 L 393.023438 429.023438 L 399.226562 426.636719 L 405.433594 421.269531 L 411.636719 417.273438 L 417.839844 419.9375 L 424.046875 425.117188 L 430.25 428.921875 L 436.453125 427.539062 L 442.660156 425.25 L 448.863281 425.90625 L 455.066406 430.726562 L 461.273438 432.210938 L 467.476562 426.824219 L 473.683594 422.070312 L 479.886719 424.351562 L 486.089844 432.8125 L 492.296875 435.675781 L 498.5 435.546875 L 504.703125 439.558594 L 510.910156 452.046875 L 517.113281 465.742188 L 523.316406 473.449219 L 529.523438 478.710938 L 535.726562 485.40625 L 541.933594 495.683594 L 548.136719 503.828125 L 554.339844 507.136719 L 560.546875 504.78125 L 566.75 503.855469 L 572.953125 507.613281 L 579.160156 513.558594 L 585.363281 514.996094 L 591.566406 513.03125 L 597.773438 518.644531 L 603.976562 532.273438 L 610.183594 527.820312 L 616.386719 519.871094 L 622.589844 519.386719 L 628.796875 524.292969 L 635 527.65625 L 641.203125 524.207031 L 647.410156 519.171875 L 653.613281 518.484375 L 659.816406 519.605469 L 666.023438 517.476562 L 672.226562 509.222656 L 678.433594 499.90625 L 684.636719 494.003906 L 690.839844 492.800781 L 697.046875 489.683594 L 703.25 483.226562 L 709.453125 477.488281 L 715.660156 479.785156 L 721.863281 487.832031 L 728.066406 492.90625 L 734.273438 494.878906 L 740.476562 498.605469 L 746.683594 509.742188 L 752.886719 520.78125 L 759.089844 526.699219 L 765.296875 528.210938 L 771.5 531.046875 L 777.703125 537.097656 L 783.910156 542.234375 L 790.113281 543.828125 L 796.316406 542.382812 L 802.523438 543.890625 L 808.726562 550.421875 L 814.933594 560.523438 L 821.136719 559.300781 L 827.339844 548.851562 L 833.546875 543.65625 L 839.75 540.089844 L 845.953125 538.667969 L 852.160156 537.703125 L 858.363281 538.300781 L 864.566406 542.273438 L 870.773438 547.949219 "/>
<path fill-rule="nonzero" fill="rgb(0%, 0%, 0%)" fill-opacity="1" d="M 608.914062 532.273438 C 608.914062 525.691406 599.042969 525.691406 599.042969 532.273438 C 599.042969 538.851562 608.914062 538.851562 608.914062 532.273438 Z M 608.914062 532.273438 "/>
<g clip-path="url(#clip-1-7194f9cd)">
<path fill="none" stroke-width="1.5" stroke-linecap="butt" stroke-linejoin="miter" stroke="rgb(0%, 0%, 0%)" stroke-opacity="1" stroke-dasharray="1.5 3" stroke-miterlimit="1.154701" d="M 603.976562 696 L 603.976562 404 "/>
</g>
<path fill="none" stroke-width="1" stroke-linecap="butt" stroke-linejoin="miter" stroke="rgb(0%, 0%, 0%)" stroke-opacity="1" stroke-miterlimit="1.154701" d="M 126.226562 334.5 L 126.226562 339.5 "/>
<path fill="none" stroke-width="1" stroke-linecap="butt" stroke-linejoin="miter" stroke="rgb(0%, 0%, 0%)" stroke-opacity="1" stroke-miterlimit="1.154701" d="M 498.5 334.5 L 498.5 339.5 "/>
<path fill="none" stroke-width="1" stroke-linecap="butt" stroke-linejoin="miter" stroke="rgb(0%, 0%, 0%)" stroke-opacity="1" stroke-miterlimit="1.154701" d="M 870.773438 334.5 L 870.773438 339.5 "/>
<path fill="none" stroke-width="1" stroke-linecap="butt" stroke-linejoin="miter" stroke="rgb(0%, 0%, 0%)" stroke-opacity="1" stroke-miterlimit="1.154701" d="M 88.5 322.0625 L 83.5 322.0625 "/>
<path fill="none" stroke-width="1" stroke-linecap="butt" stroke-linejoin="miter" stroke="rgb(0%, 0%, 0%)" stroke-opacity="1" stroke-miterlimit="1.154701" d="M 88.5 255.265625 L 83.5 255.265625 "/>
<path fill="none" stroke-width="1" stroke-linecap="butt" stroke-linejoin="miter" stroke="rgb(0%, 0%, 0%)" stroke-opacity="1" stroke-miterlimit="1.154701" d="M 88.5 188.46875 L 83.5 188.46875 "/>
<path fill="none" stroke-width="1" stroke-linecap="butt" stroke-linejoin="miter" stroke="rgb(0%, 0%, 0%)" stroke-opacity="1" stroke-miterlimit="1.154701" d="M 88.5 121.671875 L 83.5 121.671875 "/>
<path fill="none" stroke-width="1" stroke-linecap="butt" stroke-linejoin="miter" stroke="rgb(0%, 0%, 0%)" stroke-opacity="1" stroke-miterlimit="1.154701" d="M 88.5 54.871094 L 83.5 54.871094 "/>
<path fill="none" stroke-width="1" stroke-linecap="butt" stroke-linejoin="miter" stroke="rgb(0%, 0%, 0%)" stroke-opacity="1" stroke-miterlimit="1.154701" d="M 126.226562 696.5 L 126.226562 701.5 "/>
<path fill="none" stroke-width="1" stroke-linecap="butt" stroke-linejoin="miter" stroke="rgb(0%, 0%, 0%)" stroke-opacity="1" stroke-miterlimit="1.154701" d="M 498.5 696.5 L 498.5 701.5 "/>
<path fill="none" stroke-width="1" stroke-linecap="butt" stroke-linejoin="miter" stroke="rgb(0%, 0%, 0%)" stroke-opacity="1" stroke-miterlimit="1.154701" d="M 870.773438 696.5 L 870.773438 701.5 "/>
<path fill="none" stroke-width="1" stroke-linecap="butt" stroke-linejoin="miter" stroke="rgb(0%, 0%, 0%)" stroke-opacity="1" stroke-miterlimit="1.154701" d="M 88.5 682.726562 L 83.5 682.726562 "/>
<path fill="none" stroke-width="1" stroke-linecap="butt" stroke-linejoin="miter" stroke="rgb(0%, 0%, 0%)" stroke-opacity="1" stroke-miterlimit="1.154701" d="M 88.5 638.535156 L 83.5 638.535156 "/>
<path fill="none" stroke-width="1" stroke-linecap="butt" stroke-linejoin="miter" stroke="rgb(0%, 0%, 0%)" stroke-opacity="1" stroke-miterlimit="1.154701" d="M 88.5 594.34375 L 83.5 594.34375 "/>
<path fill="none" stroke-width="1" stroke-linecap="butt" stroke-linejoin="miter" stroke="rgb(0%, 0%, 0%)" stroke-opacity="1" stroke-miterlimit="1.154701" d="M 88.5 550.152344 L 83.5 550.152344 "/>
<path fill="none" stroke-width="1" stroke-linecap="butt" stroke-linejoin="miter" stroke="rgb(0%, 0%, 0%)" stroke-opacity="1" stroke-miterlimit="1.154701" d="M 88.5 505.957031 L 83.5 505.957031 "/>
<path fill="none" stroke-width="1" stroke-linecap="butt" stroke-linejoin="miter" stroke="rgb(0%, 0%, 0%)" stroke-opacity="1" stroke-miterlimit="1.154701" d="M 88.5 461.765625 L 83.5 461.765625 "/>
<path fill="none" stroke-width="1" stroke-linecap="butt" stroke-linejoin="miter" stroke="rgb(0%, 0%, 0%)" stroke-opacity="1" stroke-miterlimit="1.154701" d="M 88.5 417.574219 L 83.5 417.574219 "/>
<path fill="none" stroke-width="1" stroke-linecap="butt" stroke-linejoin="miter" stroke="rgb(0%, 0%, 0%)" stroke-opacity="1" stroke-miterlimit="1.154701" d="M 88.5 334 L 908.5 334 "/>
<path fill="none" stroke-width="1" stroke-linecap="butt" stroke-linejoin="miter" stroke="rgb(0%, 0%, 0%)" stroke-opacity="1" stroke-miterlimit="1.154701" d="M 89 334.5 L 89 41.5 "/>
<path fill="none" stroke-width="1" stroke-linecap="butt" stroke-linejoin="miter" stroke="rgb(0%, 0%, 0%)" stroke-opacity="1" stroke-miterlimit="1.154701" d="M 88.5 696 L 908.5 696 "/>
<path fill="none" stroke-width="1" stroke-linecap="butt" stroke-linejoin="miter" stroke="rgb(0%, 0%, 0%)" stroke-opacity="1" stroke-miterlimit="1.154701" d="M 89 696.5 L 89 403.5 "/>
</svg>
